<?xml version="1.0" encoding="utf-8"?>
<!-- Generator: Adobe Illustrator 16.0.0, SVG Export Plug-In . SVG Version: 6.00 Build 0)  -->
<!DOCTYPE svg PUBLIC "-//W3C//DTD SVG 1.1//EN" "http://www.w3.org/Graphics/SVG/1.1/DTD/svg11.dtd">
<svg version="1.1" id="Layer_1" xmlns="http://www.w3.org/2000/svg" xmlns:xlink="http://www.w3.org/1999/xlink" x="0px" y="0px"
	 width="110px" height="202.667px" viewBox="0 0 110 202.667" enable-background="new 0 0 110 202.667" xml:space="preserve">
<path fill="#FFE161" d="M28.712,195.334h50V79.783c0-2.426,0.525-11.432,1.122-13.783c2.876-11.323,13.226-48.427,15.303-55.862
	c0.214-0.768-0.114-1.585-0.801-1.991l-2.939-1.732L37.445,62.89c-5.181,5.423-8.089,12.623-8.13,20.122L28.712,195.334z"/>
<path fill="#F6D33C" d="M23.833,195.334h50V80.041c0-2.667,0.364-5.323,1.081-7.892L92.585,8.83c0.17-0.609,0.047-1.262-0.333-1.768
	c-0.38-0.505-0.974-0.805-1.606-0.811L43.709,5.848c-0.925-0.008-1.739,0.61-1.979,1.503l-16.241,60.31
	c-0.657,2.438-0.996,4.951-1.01,7.477L23.833,195.334z"/>
<path d="M88.947,198.542c0,0.806-0.653,1.458-1.458,1.458H15.405c-0.805,0-1.458-0.652-1.458-1.458v-2.75
	c0-0.806,0.653-1.458,1.458-1.458h72.084c0.805,0,1.458,0.652,1.458,1.458V198.542z"/>
<polygon points="76.544,45.097 35.184,45.097 45.79,10.404 87.15,10.404 "/>
<polygon fill="#FFFFFF" points="75.375,43.778 37.16,43.778 46.959,11.723 85.174,11.723 "/>
<polygon fill="#798991" points="62.6,39.026 42.101,39.026 43.9,32.75 64.401,32.75 "/>
<polygon fill="#798991" points="73.375,39.026 64.375,39.026 66.174,32.75 75.174,32.75 "/>
<polygon fill="#798991" points="78.675,22.289 69.675,22.289 71.475,16.013 80.475,16.013 "/>
<polygon fill="#798991" points="76.125,30.664 67.125,30.664 68.924,24.388 77.924,24.388 "/>
<polygon fill="#798991" points="67.622,22.289 58.622,22.289 60.421,16.013 69.421,16.013 "/>
<polygon fill="#798991" points="65.071,30.664 56.071,30.664 57.872,24.388 66.872,24.388 "/>
<polygon fill="#798991" points="56.447,22.289 47.447,22.289 49.247,16.013 58.247,16.013 "/>
<polygon fill="#798991" points="53.896,30.664 44.896,30.664 46.696,24.388 55.696,24.388 "/>
<path fill="#1B1B1C" d="M88.947,198.542c0,0.806-0.653,1.458-1.458,1.458h-9.084c-0.805,0-1.458-0.652-1.458-1.458v-2.75
	c0-0.806,0.653-1.458,1.458-1.458h9.084c0.805,0,1.458,0.652,1.458,1.458V198.542z"/>
<g>
	<rect x="36.578" y="96.39" fill="#FFFFFF" width="23.738" height="23.738"/>
	<rect x="37.191" y="97.003" fill="#010101" width="22.51" height="22.51"/>
	<g>
		<path fill="#FFFFFF" d="M44.409,111.706c0.388-0.323,0.456-0.725,0.456-1.083v-1.513h-2.111v2.053c0,0.292-0.237,0.53-0.531,0.53
			c-0.293,0-0.512-0.238-0.512-0.53v-5.814c0-0.293,0.219-0.531,0.512-0.531s0.531,0.238,0.531,0.531v2.064h2.109v-2.143
			c0-1.182-0.774-2.156-2.659-2.159c-1.934,0-2.665,0.979-2.665,2.163v6.068c0,1.172,0.932,2.061,2.123,2.061h0.652L44.409,111.706
			 M52.733,111.944v-6.668h-1.457v-1.966h5.272v1.966h-1.464v8.115H54.46L52.733,111.944"/>
		<path fill="#F6D33C" d="M53.677,113.405l-5.135-4.302l-5.321,4.302H53.677"/>
		<path fill="#FFFFFF" d="M50.008,103.321h-2.942l-1.713,7.689l3.191-2.575l3.328,2.788L50.008,103.321z M47.975,107.943
			l0.569-2.906l0.564,2.906H47.975z M58.15,103.63c0.165,0,0.305,0.059,0.421,0.175s0.173,0.256,0.173,0.421
			c0,0.165-0.057,0.305-0.173,0.421s-0.256,0.175-0.421,0.175c-0.164,0-0.305-0.059-0.42-0.175
			c-0.113-0.111-0.176-0.263-0.172-0.421c0-0.165,0.057-0.305,0.174-0.421C57.841,103.691,57.993,103.628,58.15,103.63z
			 M58.843,104.224c0-0.19-0.067-0.353-0.202-0.486c-0.136-0.134-0.298-0.2-0.489-0.2c-0.183-0.002-0.357,0.07-0.485,0.2
			c-0.132,0.127-0.206,0.303-0.202,0.486c0,0.191,0.066,0.355,0.199,0.489c0.135,0.135,0.297,0.203,0.488,0.203
			s0.354-0.068,0.489-0.203C58.776,104.578,58.843,104.415,58.843,104.224L58.843,104.224z M58.335,104.076
			c0,0.057-0.026,0.096-0.079,0.117c-0.041,0.013-0.085,0.019-0.128,0.017h-0.122v-0.273h0.116
			C58.27,103.937,58.335,103.966,58.335,104.076z M57.874,103.844v0.757h0.133v-0.296h0.106c0.07,0,0.121,0.007,0.148,0.023
			c0.049,0.028,0.072,0.086,0.072,0.172v0.06l0.002,0.025c0,0.002,0.002,0.005,0.002,0.008l0.002,0.008h0.125l-0.005-0.011
			c-0.007-0.058-0.009-0.149-0.009-0.149c-0.002-0.096-0.072-0.177-0.168-0.191c0.134-0.021,0.182-0.083,0.182-0.186
			c0-0.096-0.039-0.16-0.117-0.192c-0.045-0.018-0.113-0.027-0.207-0.027H57.874L57.874,103.844z"/>
	</g>
</g>
</svg>
