<?xml version="1.0" standalone="no"?>
<!DOCTYPE svg PUBLIC "-//W3C//DTD SVG 1.1//EN" "http://www.w3.org/Graphics/SVG/1.1/DTD/svg11.dtd" >
<svg xmlns="http://www.w3.org/2000/svg">
<metadata>Generated by IcoMoon</metadata>
<defs>
<font id="icomoon" horiz-adv-x="1024">
<font-face units-per-em="1024" ascent="960" descent="-64" />
<missing-glyph horiz-adv-x="1024" />
<glyph unicode="&#x20;" horiz-adv-x="512" d="" />
<glyph unicode="&#xe963;" glyph-name="layout-third-vertical" d="M921.6 837.12h-819.2c-33.932 0-61.44-27.508-61.44-61.44v-737.28c0-33.932 27.508-61.44 61.44-61.44h819.2c33.932 0 61.44 27.508 61.44 61.44v737.28c0 33.932-27.508 61.44-61.44 61.44zM942.080 38.4c0-11.311-9.169-20.48-20.48-20.48h-819.2c-11.311 0-20.48 9.169-20.48 20.48v225.28h860.16zM942.080 304.64h-860.16v204.8h860.16zM942.080 550.4h-860.16v225.28c0 11.311 9.169 20.48 20.48 20.48h819.2c11.311 0 20.48-9.169 20.48-20.48z" />
<glyph unicode="&#xe971;" glyph-name="app-notification" d="M819.2 960c-113.108 0-204.8-91.692-204.8-204.8s91.692-204.8 204.8-204.8c113.108 0 204.8 91.692 204.8 204.8s-91.692 204.8-204.8 204.8zM819.2 591.36c-90.486 0-163.84 73.354-163.84 163.84s73.354 163.84 163.84 163.84c90.486 0 163.84-73.354 163.84-163.84-0.107-90.443-73.397-163.733-163.83-163.84zM901.12 488.96v-430.080c0-67.865-55.015-122.88-122.88-122.88h-655.36c-67.865 0-122.88 55.015-122.88 122.88v655.36c0 67.865 55.015 122.88 122.88 122.88h430.080c11.311 0 20.48-9.169 20.48-20.48s-9.169-20.48-20.48-20.48h-430.080c-45.224-0.049-81.871-36.697-81.92-81.915v-655.365c0.056-45.221 36.699-81.864 81.915-81.92h655.365c45.221 0.056 81.864 36.699 81.92 81.915v430.085c0 11.311 9.169 20.48 20.48 20.48s20.48-9.169 20.48-20.48z" />
<glyph unicode="&#xe976;" glyph-name="check-ui" d="M854.602 720.679l-395.121-409.6c-3.744-3.97-9.039-6.441-14.911-6.441-5.29 0-10.111 2.006-13.745 5.298l-219.266 205.8c-4.296 3.773-6.993 9.278-6.993 15.412 0 11.311 9.169 20.48 20.48 20.48 5.399 0 10.31-2.089 13.969-5.503l204.378-192.37 381.379 395.002c3.745 3.973 9.044 6.447 14.92 6.447 11.314 0 20.486-9.172 20.486-20.486 0-5.438-2.119-10.381-5.576-14.049z" />
<glyph unicode="&#xe978;" glyph-name="cloud-download" d="M690.319 175.759c3.705-3.706 5.996-8.825 5.996-14.479s-2.291-10.773-5.996-14.479l-163.84-163.84c-3.706-3.705-8.825-5.996-14.479-5.996s-10.773 2.291-14.479 5.996l-163.84 163.84c-3.557 3.679-5.749 8.697-5.749 14.228 0 11.311 9.169 20.48 20.48 20.48 5.53 0 10.549-2.192 14.233-5.755l128.875-128.875v483.041c0 11.311 9.169 20.48 20.48 20.48s20.48-9.169 20.48-20.48v-483.041l128.881 128.881c3.706 3.705 8.825 5.996 14.479 5.996s10.773-2.291 14.479-5.996zM816.239 711c-25.47 142.412-148.388 249.107-296.227 249.107-2.817 0-5.626-0.039-8.424-0.116-1.974 0.077-4.782 0.116-7.599 0.116-147.838 0-270.757-106.694-295.956-247.283-118.654-20.809-208.012-122.217-208.012-244.496 0-135.646 109.963-245.608 245.608-245.608 0.046 0 0.092 0 0.137 0h61.433c11.311 0 20.48 9.169 20.48 20.48s-9.169 20.48-20.48 20.48h-61.44c-0.047 0-0.102 0-0.157 0-113.026 0-204.653 91.626-204.653 204.653 0 101.892 74.463 186.393 171.94 202.052l31.182 4.816 4.248 30.081c22.818 122.423 128.819 213.866 256.177 213.866 2.638 0 5.268-0.039 7.887-0.117 1.852 0.078 4.482 0.117 7.122 0.117 127.359 0 233.359-91.446 255.924-212.259l4.502-31.692 30.011-4.661c98.635-15.826 173.085-100.32 173.085-202.203 0-113.026-91.626-204.653-204.653-204.653-0.047 0-0.095 0-0.142 0h-61.433c-11.311 0-20.48-9.169-20.48-20.48s9.169-20.48 20.48-20.48h61.44c0.039 0 0.085 0 0.131 0 135.646 0 245.608 109.963 245.608 245.608 0 122.278-89.357 223.686-206.335 242.485z" />
<glyph unicode="&#xe97b;" glyph-name="cog" d="M994.324 527.782l-84.193 24.117c-6.559 1.963-11.622 7.021-13.554 13.436-8.475 27.692-18.488 51.381-30.575 73.786-0.473 0.625-1.367 3.904-1.367 7.39 0 3.532 0.918 6.85 2.528 9.727l42.219 76.023c3.239 5.729 5.147 12.581 5.147 19.879 0 11.31-4.584 21.55-11.996 28.962l-57.422 57.438c-7.406 7.414-17.642 12-28.95 12-7.303 0-14.16-1.913-20.095-5.266l-75.965-42.152c-2.745-1.544-6.025-2.455-9.518-2.458-3.525 0.012-6.837 0.907-9.731 2.475-20.172 11-43.854 21.013-68.567 28.683-9.365 2.731-14.415 7.785-16.349 14.19l-24.154 84.307c-5.066 17.277-20.772 29.679-39.375 29.68h-80.814c-18.603-0.001-34.309-12.403-39.302-29.39l-24.19-84.45c-1.97-6.561-7.031-11.625-13.448-13.562-27.671-8.468-51.345-18.48-73.731-30.572-0.669-0.47-3.978-1.364-7.496-1.377-3.502 0.001-6.786 0.912-9.635 2.509l-76.053 42.224c-5.731 3.247-12.588 5.16-19.891 5.16-11.307 0-21.543-4.586-28.949-12l-57.426-57.422c-7.417-7.413-12.004-17.656-12.004-28.97 0-7.301 1.91-14.155 5.258-20.092l42.152-75.956c1.553-2.772 2.467-6.082 2.467-9.607 0-3.503-0.904-6.796-2.491-9.656-10.998-20.167-21.010-43.836-28.684-68.535-2.723-9.381-7.788-14.44-14.208-16.364l-84.29-24.158c-17.273-5.068-29.671-20.773-29.671-39.374 0-0.003 0-0.007 0-0.010v-80.801c0-0.001 0-0.002 0-0.003 0-18.604 12.402-34.31 29.39-39.303l84.458-24.194c6.564-1.954 11.631-7.016 13.554-13.437 8.478-27.693 18.491-51.382 30.576-73.788 0.47-0.62 1.364-3.894 1.364-7.378 0-3.528-0.917-6.842-2.526-9.717l-42.198-76.040c-3.234-5.726-5.14-12.573-5.14-19.866 0-11.307 4.581-21.543 11.989-28.955l57.422-57.422c7.413-7.416 17.656-12.004 28.97-12.004 7.294 0 14.144 1.907 20.076 5.249l75.956 42.136c2.749 1.546 6.034 2.457 9.531 2.458 3.521-0.012 6.831-0.907 9.722-2.475 20.165-10.995 43.839-21.008 68.543-28.682 9.383-2.73 14.444-7.793 16.377-14.212l24.162-84.303c5.071-17.269 20.774-29.663 39.371-29.663 0.001 0 0.002 0 0.004 0h80.802c18.603 0.001 34.309 12.403 39.302 29.39l24.186 84.45c1.963 6.556 7.022 11.615 13.437 13.542 27.682 8.472 51.364 18.485 73.761 30.574 0.662 0.468 3.97 1.363 7.486 1.375 0.017 0 0.033 0 0.048 0 3.483 0 6.753-0.911 9.584-2.508l76.055-42.204c5.727-3.235 12.575-5.141 19.868-5.141 11.313 0 21.556 4.587 28.968 12.002l57.426 57.422c7.407 7.411 11.988 17.648 11.988 28.955 0 7.292-1.906 14.14-5.246 20.071l-42.144 75.98c-1.554 2.772-2.47 6.083-2.47 9.608 0 3.495 0.9 6.78 2.481 9.635 10.991 20.174 21.004 43.857 28.682 68.567 2.738 9.382 7.797 14.436 14.21 16.372l84.299 24.138c17.275 5.067 29.675 20.773 29.676 39.375v80.798c0 0.002 0 0.005 0 0.008 0 18.602-12.4 34.308-29.386 39.302zM983.040 407.601l-84.161-24.121c-19.962-5.861-35.407-21.152-41.375-40.591-7.69-25.156-16.673-46.414-27.515-66.521-3.62-6.415-6.303-16.33-6.303-26.872 0-10.821 2.827-20.982 7.783-29.784l42.097-75.856-57.426-57.422-76.161 42.258c-8.477 4.779-18.61 7.595-29.4 7.598-10.566-0.022-20.503-2.693-29.189-7.383-17.875-9.756-39.131-18.74-61.312-25.622-22.406-6.76-37.701-22.21-43.453-41.747l-24.226-84.578h-80.798l-24.13 84.181c-5.869 19.97-21.17 35.419-40.619 41.387-25.134 7.667-46.38 16.644-66.47 27.489-6.461 3.593-16.397 6.264-26.954 6.286-0.011 0-0.016 0-0.021 0-10.789 0-20.919-2.825-29.689-7.775l-75.863-42.085-57.422 57.418 42.25 76.161c4.791 8.492 7.614 18.645 7.614 29.458 0 10.511-2.668 20.4-7.364 29.025-9.74 17.883-18.723 39.147-25.618 61.331-6.744 22.449-22.201 37.767-41.754 43.521l-84.603 24.246v80.798l84.148 24.121c19.966 5.858 35.416 21.15 41.387 40.591 7.68 25.138 16.658 46.382 27.497 66.475 3.638 6.428 6.33 16.355 6.33 26.911 0 10.817-2.827 20.974-7.783 29.771l-42.113 75.881 57.434 57.41 76.149-42.238c8.478-4.786 18.613-7.609 29.406-7.619 10.567 0.021 20.502 2.692 29.187 7.383 17.862 9.742 39.107 18.726 61.274 25.618 22.427 6.756 37.732 22.208 43.488 41.751l24.23 84.587h80.81l24.113-84.161c5.86-19.958 21.148-35.4 40.582-41.366 25.147-7.685 46.399-16.669 66.5-27.514 6.457-3.604 16.401-6.283 26.97-6.302 10.796 0.001 20.928 2.818 29.708 7.756l75.881 42.101 57.422-57.422-42.258-76.132c-4.797-8.497-7.623-18.656-7.623-29.476 0-10.519 2.671-20.414 7.372-29.043 9.74-17.882 18.724-39.147 25.622-61.331 6.752-22.446 22.206-37.76 41.754-43.521l84.595-24.23zM512 673.28c-124.419 0-225.28-100.861-225.28-225.28s100.861-225.28 225.28-225.28c124.419 0 225.28 100.861 225.28 225.28-0.144 124.361-100.919 225.136-225.266 225.28zM512 263.68c-101.797 0-184.32 82.523-184.32 184.32s82.523 184.32 184.32 184.32c101.797 0 184.32-82.523 184.32-184.32s-82.523-184.32-184.32-184.32z" />
<glyph unicode="&#xe97f;" glyph-name="cross-ui" d="M772.239 257.679c3.557-3.679 5.749-8.697 5.749-14.228 0-11.311-9.169-20.48-20.48-20.48-5.53 0-10.549 2.192-14.233 5.755l-231.275 231.275-231.281-231.281c-3.679-3.557-8.697-5.749-14.228-5.749-11.311 0-20.48 9.169-20.48 20.48 0 5.53 2.192 10.549 5.755 14.233l231.275 231.275-231.281 231.281c-3.857 3.729-6.252 8.95-6.252 14.731 0 11.311 9.169 20.48 20.48 20.48 5.781 0 11.002-2.395 14.725-6.247l231.286-231.286 231.281 231.281c3.729 3.857 8.95 6.252 14.731 6.252 11.311 0 20.48-9.169 20.48-20.48 0-5.781-2.395-11.002-6.247-14.725l-231.286-231.286z" />
<glyph unicode="&#xe98a;" glyph-name="hamburger-ui" d="M122.88 652.8c0 11.311 9.169 20.48 20.48 20.48h737.28c11.311 0 20.48-9.169 20.48-20.48s-9.169-20.48-20.48-20.48h-737.28c-11.311 0-20.48 9.169-20.48 20.48zM880.64 427.52h-737.28c-11.311 0-20.48-9.169-20.48-20.48s9.169-20.48 20.48-20.48h737.28c11.311 0 20.48 9.169 20.48 20.48s-9.169 20.48-20.48 20.48zM880.64 181.76h-737.28c-11.311 0-20.48-9.169-20.48-20.48s9.169-20.48 20.48-20.48h737.28c11.311 0 20.48 9.169 20.48 20.48s-9.169 20.48-20.48 20.48z" />
<glyph unicode="&#xe9a1;" glyph-name="notification-a" d="M1009.189 284.5c-4.498 16.078-14.918 29.201-28.701 37.14l-49.86 28.4c-18.784 10.794-32.683 28.297-38.536 49.164l-75.472 276.877c-40.062 141.235-167.865 242.96-319.427 242.96-0.371 0-0.742-0.001-1.113-0.002-30.575-0.017-60.242-4.118-88.439-11.787-140.103-36.955-243.461-164.62-243.461-316.426 0-29.995 4.035-59.048 11.592-86.645l74.81-274.024c1.796-6.361 2.829-13.667 2.829-21.213 0-15.095-4.131-29.224-11.324-41.32l-28.405-48.534c-5.242-8.795-8.34-19.395-8.34-30.719 0-5.657 0.773-11.133 2.22-16.329l14.71-54.123 801.731 212.021zM251.138 67.92l-4.149 15.278c-0.442 1.554-0.695 3.339-0.695 5.183 0 3.696 1.020 7.153 2.793 10.106l28.557 48.829c10.475 17.699 16.665 39.008 16.665 61.762 0 11.33-1.535 22.302-4.407 32.719l-75.135 275.405c-6.349 22.289-10 47.888-10 74.339 0 52.122 14.175 100.934 38.88 142.791 37.959 64.903 100.486 113.617 174.811 133.401 24.711 6.719 50.776 10.327 77.68 10.348 0.287 0.001 0.612 0.001 0.937 0.001 132.798 0 244.795-89.059 279.523-210.71l75.834-278.33c8.884-32.19 29.727-58.466 57.329-74.285l50.159-28.557c4.737-2.676 8.244-7.060 9.714-12.296l4.044-14.889zM696.209 99.84c0-0.36 0.111-0.68 0.111-1.040-2.771-67.916-58.5-121.924-126.844-121.924-1.631 0-3.255 0.031-4.871 0.092-0.214-0.012-0.742-0.015-1.27-0.015-47.369 0-88.945 24.801-112.452 62.127z" />
<glyph unicode="&#xe9a2;" glyph-name="notification" d="M883.126 199.762l-39.932 39.92c-14.825 14.825-23.994 35.305-23.994 57.927 0 0.004 0 0.008 0 0.012v293.74c0 180.973-146.707 327.68-327.68 327.68s-327.68-146.707-327.68-327.68v-293.741c0-0.006 0-0.013 0-0.019 0-22.62-9.168-43.098-23.99-57.923l-39.936-39.92c-11.116-11.117-17.992-26.475-17.994-43.438v-56.48h251.552c18.55-71.187 82.263-122.884 158.050-122.884s139.5 51.696 157.799 121.749l251.799 1.135v56.48c0 16.965-6.876 32.324-17.994 43.442zM491.52 17.92c-52.991 0.177-98.055 33.916-115.062 81.065l230.389 0.855c-17.274-48.003-62.337-81.743-115.305-81.92zM860.16 140.8h-737.28v15.52c0 0.012 0 0.026 0 0.040 0 5.643 2.294 10.749 6 14.439l39.933 39.92c22.231 22.121 35.988 52.739 35.988 86.57 0 0.116 0 0.232 0 0.348v293.723c0 158.351 128.369 286.72 286.72 286.72s286.72-128.369 286.72-286.72v-293.741c0-0.097 0-0.212 0-0.326 0-33.833 13.759-64.453 35.987-86.569l39.937-39.925c3.704-3.69 5.997-8.795 5.997-14.436 0-0.015 0-0.031 0-0.046z" />
<glyph unicode="&#xe9a3;" glyph-name="notification2" d="M883.126 199.762l-39.932 39.92c-14.825 14.825-23.994 35.305-23.994 57.927 0 0.004 0 0.008 0 0.012v293.74c0 180.973-146.707 327.68-327.68 327.68s-327.68-146.707-327.68-327.68v-293.741c0-0.006 0-0.013 0-0.019 0-22.62-9.168-43.098-23.99-57.923l-39.936-39.92c-11.116-11.117-17.992-26.475-17.994-43.438v-56.48h251.552c18.55-71.187 82.263-122.884 158.050-122.884s139.5 51.696 157.799 121.749l251.799 1.135v56.48c0 16.965-6.876 32.324-17.994 43.442zM491.52 17.92c-52.991 0.177-98.055 33.916-115.062 81.065l230.389 0.855c-17.274-48.003-62.337-81.743-115.305-81.92zM860.16 140.8h-737.28v15.52c0 0.012 0 0.026 0 0.040 0 5.643 2.294 10.749 6 14.439l39.933 39.92c22.231 22.121 35.988 52.739 35.988 86.57 0 0.116 0 0.232 0 0.348v293.723c0 158.351 128.369 286.72 286.72 286.72s286.72-128.369 286.72-286.72v-293.741c0-0.097 0-0.212 0-0.326 0-33.833 13.759-64.453 35.987-86.569l39.937-39.925c3.704-3.69 5.997-8.795 5.997-14.436 0-0.015 0-0.031 0-0.046z" />
<glyph unicode="&#xe9a6;" glyph-name="plus-ui" d="M860.16 448c0-11.311-9.169-20.48-20.48-20.48h-307.2v-307.2c0-11.311-9.169-20.48-20.48-20.48s-20.48 9.169-20.48 20.48v307.2h-307.2c-11.311 0-20.48 9.169-20.48 20.48s9.169 20.48 20.48 20.48h307.2v307.2c0 11.311 9.169 20.48 20.48 20.48s20.48-9.169 20.48-20.48v-307.2h307.2c11.311 0 20.48-9.169 20.48-20.48z" />
<glyph unicode="&#xe9a8;" glyph-name="previouse-queue" d="M532.48 652.8v-225.28h225.28c11.311 0 20.48-9.169 20.48-20.48s-9.169-20.48-20.48-20.48h-245.76c-11.311 0-20.48 9.169-20.48 20.48v245.76c0 11.311 9.169 20.48 20.48 20.48s20.48-9.169 20.48-20.48zM512 960c-0.631 0.003-1.378 0.004-2.126 0.004-209.869 0-390.037-127.166-467.654-308.648l-1.261 247.204c0 11.311-9.169 20.48-20.48 20.48s-20.48-9.169-20.48-20.48v-286.72c0-11.311 9.169-20.48 20.48-20.48h286.72c11.311 0 20.48 9.169 20.48 20.48s-9.169 20.48-20.48 20.48h-228.209c73.698 169.464 239.658 285.812 432.793 285.812 259.897 0 470.585-210.688 470.585-470.585s-210.688-470.585-470.585-470.585c-140.446 0-266.523 61.526-352.746 159.095-4.209 4.762-9.691 7.433-15.797 7.433-11.316 0-20.489-9.173-20.489-20.489 0-5.21 1.945-9.966 5.148-13.581 94.26-106.563 231.356-173.42 384.067-173.42 282.77 0 512 229.23 512 512 0 282.758-229.211 511.981-511.965 512z" />
<glyph unicode="&#xe9a9;" glyph-name="print-a" d="M245.76 693.76v122.88c0 33.932 27.508 61.44 61.44 61.44h409.6c33.932 0 61.44-27.508 61.44-61.44v-122.88c0-11.311-9.169-20.48-20.48-20.48s-20.48 9.169-20.48 20.48v122.88c0 11.311-9.169 20.48-20.48 20.48h-409.6c-11.311 0-20.48-9.169-20.48-20.48v-122.88c0-11.311-9.169-20.48-20.48-20.48s-20.48 9.169-20.48 20.48zM266.24 427.52h-81.92c-11.311 0-20.48-9.169-20.48-20.48s9.169-20.48 20.48-20.48h81.92c11.311 0 20.48 9.169 20.48 20.48s-9.169 20.48-20.48 20.48zM983.040 509.44v-389.12c0-33.932-27.508-61.44-61.44-61.44h-61.44v-61.44c0-33.932-27.508-61.44-61.44-61.44h-573.44c-33.932 0-61.44 27.508-61.44 61.44v61.44h-61.44c-33.932 0-61.44 27.508-61.44 61.44v389.12c0 67.865 55.015 122.88 122.88 122.88h696.32c67.865 0 122.88-55.015 122.88-122.88zM819.2 222.72h-614.4v-225.28c0.014-11.305 9.175-20.466 20.479-20.48h573.441c11.305 0.014 20.466 9.175 20.48 20.479zM942.080 509.44c-0.049 45.224-36.697 81.871-81.915 81.92h-696.325c-45.224-0.049-81.871-36.697-81.92-81.915v-389.125c0-11.311 9.169-20.48 20.48-20.48h61.44v122.88h-20.48c-11.311 0-20.48 9.169-20.48 20.48s9.169 20.48 20.48 20.48h737.28c11.311 0 20.48-9.169 20.48-20.48s-9.169-20.48-20.48-20.48h-20.48v-122.88h61.44c11.311 0 20.48 9.169 20.48 20.48z" />
<glyph unicode="&#xe9ac;" glyph-name="refresh-ui" d="M1024 898.56v-286.72c0-11.311-9.169-20.48-20.48-20.48h-286.72c-11.311 0-20.48 9.169-20.48 20.48s9.169 20.48 20.48 20.48h228.209c-73.698 169.464-239.658 285.812-432.793 285.812-259.897 0-470.585-210.688-470.585-470.585s210.688-470.585 470.585-470.585c140.446 0 266.523 61.526 352.746 159.095 4.209 4.762 9.691 7.433 15.797 7.433 11.316 0 20.489-9.173 20.489-20.489 0-5.21-1.945-9.966-5.148-13.581-94.308-106.791-231.574-173.804-384.492-173.804-282.876 0-512.193 229.316-512.193 512.193s229.316 512.193 512.193 512.193c210.547 0 391.421-127.040 470.153-308.647l1.279 247.206c0 11.311 9.169 20.48 20.48 20.48s20.48-9.169 20.48-20.48z" />
<glyph unicode="&#xe9b1;" glyph-name="search-a" d="M965.046 81.838l-202.752 202.752c-10.797 11.112-25.883 18.006-42.579 18.006-9.816 0-19.076-2.383-27.232-6.603l-84.391 84.877c54.813 61.416 88.311 142.88 88.311 232.168 0 192.935-156.405 349.34-349.34 349.34s-349.34-156.405-349.34-349.34c0-192.935 156.405-349.34 349.34-349.34 89.236 0 170.657 33.459 232.403 88.515l84.38-85.024c-3.849-7.765-6.101-16.91-6.101-26.58 0-16.733 6.743-31.891 17.66-42.905l202.748-202.748c11.070-10.845 26.244-17.537 42.981-17.537 33.932 0 61.44 27.508 61.44 61.44 0 16.735-6.691 31.907-17.543 42.988zM565.387 394.617c-55.524-55.189-132.051-89.301-216.545-89.301-169.662 0-307.2 137.538-307.2 307.2 0 84.493 34.111 161.019 89.314 216.558 55.458 54.885 131.79 88.803 216.044 88.803 169.662 0 307.2-137.538 307.2-307.2 0-84.253-33.917-160.584-88.843-216.084zM936.075 23.929c-3.706-3.705-8.825-5.996-14.479-5.996s-10.773 2.291-14.479 5.996l-202.752 202.752c-3.743 3.712-6.060 8.857-6.060 14.543 0 11.311 9.169 20.48 20.48 20.48 5.688 0 10.834-2.319 14.545-6.063l202.753-202.753c3.705-3.706 5.996-8.825 5.996-14.479s-2.291-10.773-5.996-14.479z" />
<glyph unicode="&#xe9be;" glyph-name="search" d="M977.039 11.919l-299.106 299.119c62.241 68.925 100.323 160.706 100.323 261.382 0 215.758-174.906 390.664-390.664 390.664s-390.664-174.906-390.664-390.664c0-215.758 174.906-390.664 390.664-390.664 100.676 0 192.458 38.083 261.725 100.628l298.763-299.423c3.679-3.557 8.697-5.749 14.228-5.749 11.311 0 20.48 9.169 20.48 20.48 0 5.53-2.192 10.549-5.755 14.233zM389.12 222.72c-192.283 0-348.16 155.877-348.16 348.16s155.877 348.16 348.16 348.16c192.283 0 348.16-155.877 348.16-348.16-0.233-192.19-155.97-347.927-348.138-348.16z" />
<glyph unicode="&#xe9c6;" glyph-name="trash-ui" d="M921.6 796.16h-194.56l-19.083 76.341c-6.902 26.942-30.965 46.538-59.605 46.539h-272.704c-28.64 0-52.703-19.597-59.512-46.113l-19.176-76.767h-194.56c-11.311 0-20.48-9.169-20.48-20.48s9.169-20.48 20.48-20.48h63.488l38.031-760.861c1.697-32.572 28.52-58.339 61.362-58.339 0 0 0 0 0.001 0h495.518c32.854 0.003 59.683 25.792 61.352 58.231l38.042 760.969h61.407c11.311 0 20.48 9.169 20.48 20.48s-9.169 20.48-20.48 20.48zM355.783 862.56c2.287 8.983 10.304 15.52 19.848 15.52 0.006 0 0.012 0 0.019 0h272.698c0.006 0 0.014 0 0.021 0 9.543 0 17.559-6.537 19.814-15.378l16.636-66.542h-345.637zM781.279-3.539c-0.556-10.881-9.511-19.495-20.479-19.501h-495.518c-10.956 0.003-19.905 8.595-20.478 19.409l-37.923 758.831h612.319z" />
<glyph unicode="&#xe9c7;" glyph-name="trash" d="M921.6 796.16h-194.56l-19.083 76.341c-6.902 26.942-30.965 46.538-59.605 46.539h-272.704c-28.64 0-52.703-19.597-59.512-46.113l-19.176-76.767h-194.56c-11.311 0-20.48-9.169-20.48-20.48s9.169-20.48 20.48-20.48h63.488l38.031-760.861c1.697-32.572 28.52-58.339 61.362-58.339 0 0 0 0 0.001 0h495.518c32.854 0.003 59.683 25.792 61.352 58.231l38.042 760.969h61.407c11.311 0 20.48 9.169 20.48 20.48s-9.169 20.48-20.48 20.48zM355.783 862.56c2.287 8.983 10.304 15.52 19.848 15.52 0.006 0 0.012 0 0.019 0h272.698c0.006 0 0.014 0 0.021 0 9.543 0 17.559-6.537 19.814-15.378l16.636-66.542h-345.637zM781.279-3.539c-0.556-10.881-9.511-19.495-20.479-19.501h-495.518c-10.956 0.003-19.905 8.595-20.478 19.409l-37.923 758.831h612.319zM368.64 202.24v327.68c0 11.311 9.169 20.48 20.48 20.48s20.48-9.169 20.48-20.48v-327.68c0-11.311-9.169-20.48-20.48-20.48s-20.48 9.169-20.48 20.48zM614.4 202.24v327.68c0 11.311 9.169 20.48 20.48 20.48s20.48-9.169 20.48-20.48v-327.68c0-11.311-9.169-20.48-20.48-20.48s-20.48 9.169-20.48 20.48zM491.52 161.28v409.6c0 11.311 9.169 20.48 20.48 20.48s20.48-9.169 20.48-20.48v-409.6c0-11.311-9.169-20.48-20.48-20.48s-20.48 9.169-20.48 20.48z" />
<glyph unicode="&#xe9c9;" glyph-name="ui-compose" d="M819.2 325.12v-327.68c0-33.932-27.508-61.44-61.44-61.44h-696.32c-33.932 0-61.44 27.508-61.44 61.44v696.32c0 33.932 27.508 61.44 61.44 61.44h327.68c11.311 0 20.48-9.169 20.48-20.48s-9.169-20.48-20.48-20.48h-327.68c-11.311 0-20.48-9.169-20.48-20.48v-696.32c0-11.311 9.169-20.48 20.48-20.48h696.32c11.311 0 20.48 9.169 20.48 20.48v327.68c0 11.311 9.169 20.48 20.48 20.48s20.48-9.169 20.48-20.48zM1006.002 768.221l-527.507-527.499c-11.119-11.119-26.479-17.998-43.445-18.002h-107.369c-22.622 0-40.96 18.338-40.96 40.96v107.36c0 0.003 0 0.007 0 0.011 0 16.967 6.878 32.328 17.998 43.447l527.512 527.499c11.118 11.117 26.477 17.993 43.442 17.993s32.324-6.876 43.442-17.993l86.888-86.88c11.121-11.119 17.999-26.48 17.999-43.448s-6.878-32.329-17.999-43.448zM904.634 724.779l-115.855 115.859-455.102-455.098c-3.705-3.694-5.997-8.802-5.997-14.446 0-0.019 0-0.038 0-0.057v-107.357h107.373c0.020 0 0.043 0 0.067 0 5.634 0 10.732 2.294 14.411 6zM977.035 826.159l-86.884 86.88c-3.706 3.705-8.825 5.996-14.479 5.996s-10.773-2.291-14.479-5.996l-43.45-43.438 115.855-115.859 43.438 43.459c3.706 3.706 5.998 8.826 5.998 14.481 0 5.653-2.291 10.772-5.994 14.477z" />
<glyph unicode="&#xe9ce;" glyph-name="unlock" d="M798.72 550.4h-471.040v184.32c0 101.797 82.523 184.32 184.32 184.32s184.32-82.523 184.32-184.32v-40.96c0-11.311 9.169-20.48 20.48-20.48s20.48 9.169 20.48 20.48v40.96c0 124.419-100.861 225.28-225.28 225.28s-225.28-100.861-225.28-225.28v-184.32h-61.44c-33.932 0-61.44-27.508-61.44-61.44v-491.52c0-33.932 27.508-61.44 61.44-61.44h573.44c33.932 0 61.44 27.508 61.44 61.44v491.52c0 33.932-27.508 61.44-61.44 61.44zM819.2-2.56c-0.014-11.305-9.175-20.466-20.479-20.48h-573.441c-11.305 0.014-20.466 9.175-20.48 20.479v491.521c0.014 11.305 9.175 20.466 20.479 20.48h573.441c11.305-0.014 20.466-9.175 20.48-20.479zM512 386.56c-10.009-0.020-19.691-1.386-28.885-3.924-32.599-9.188-58.529-34.441-68.672-66.69-3.183-9.87-4.907-20.407-4.907-31.346 0-30.994 13.837-58.757 35.671-77.447l-34.526-80.34c-0.67-1.937-1.056-4.169-1.056-6.492 0-11.302 9.155-20.466 20.454-20.48h163.841c11.31 0.001 20.478 9.17 20.478 20.48 0 2.317-0.385 4.543-1.094 6.62l-34.622 80.080c21.938 18.82 35.749 46.572 35.749 77.551 0 56.328-45.663 101.99-101.99 101.99-0.155 0-0.31 0-0.465-0.001zM565.49 140.8h-106.979l34.345 79.266-20.726 17.928c-13.252 11.315-21.599 28.037-21.599 46.709 0 6.728 1.084 13.203 3.086 19.26 6.005 18.913 21.223 33.736 40.388 39.196 5.687 1.573 11.739 2.426 17.987 2.441 33.925-0.040 61.409-27.523 61.449-61.436-0.039-18.494-8.374-35.030-21.479-46.092l-20.816-18.002z" />
<glyph unicode="&#xe9df;" glyph-name="document-page" d="M962.56 837.12h-61.44v61.44c0 33.932-27.508 61.44-61.44 61.44h-655.36c-33.932 0-61.44-27.508-61.44-61.44v-778.24c0-33.932 27.508-61.44 61.44-61.44h61.44v-61.44c0-33.932 27.508-61.44 61.44-61.44h655.36c33.932 0 61.44 27.508 61.44 61.44v778.24c0 33.932-27.508 61.44-61.44 61.44zM184.32 99.84c-11.311 0-20.48 9.169-20.48 20.48v778.24c0 11.311 9.169 20.48 20.48 20.48h655.36c11.311 0 20.48-9.169 20.48-20.48v-778.24c0-11.311-9.169-20.48-20.48-20.48zM983.040-2.56c0-11.311-9.169-20.48-20.48-20.48h-655.36c-11.311 0-20.48 9.169-20.48 20.48v61.44h552.96c33.932 0 61.44 27.508 61.44 61.44v675.84h61.44c11.311 0 20.48-9.169 20.48-20.48zM245.76 652.8c0 11.311 9.169 20.48 20.48 20.48h143.36c11.311 0 20.48-9.169 20.48-20.48s-9.169-20.48-20.48-20.48h-143.36c-11.311 0-20.48 9.169-20.48 20.48zM245.76 775.68c0 11.311 9.169 20.48 20.48 20.48h143.36c11.311 0 20.48-9.169 20.48-20.48s-9.169-20.48-20.48-20.48h-143.36c-11.311 0-20.48 9.169-20.48 20.48zM245.76 529.92c0 11.311 9.169 20.48 20.48 20.48h143.36c11.311 0 20.48-9.169 20.48-20.48s-9.169-20.48-20.48-20.48h-143.36c-11.311 0-20.48 9.169-20.48 20.48zM778.24 407.040c0-11.311-9.169-20.48-20.48-20.48h-491.52c-11.311 0-20.48 9.169-20.48 20.48s9.169 20.48 20.48 20.48h491.52c11.311 0 20.48-9.169 20.48-20.48zM778.24 284.16c0-11.311-9.169-20.48-20.48-20.48h-491.52c-11.311 0-20.48 9.169-20.48 20.48s9.169 20.48 20.48 20.48h491.52c11.311 0 20.48-9.169 20.48-20.48zM737.28 796.16h-163.84c-22.622 0-40.96-18.338-40.96-40.96v-204.8c0-22.622 18.338-40.96 40.96-40.96h163.84c22.622 0 40.96 18.338 40.96 40.96v204.8c0 22.622-18.338 40.96-40.96 40.96zM737.28 550.4h-163.84v204.8h163.84z" />
<glyph unicode="&#xea5f;" glyph-name="vector-editing" d="M983.040 796.16c22.622 0 40.96 18.338 40.96 40.96v81.92c0 22.622-18.338 40.96-40.96 40.96h-81.92c-22.622 0-40.96-18.338-40.96-40.96v-40.96h-696.32v40.96c0 22.622-18.338 40.96-40.96 40.96h-81.92c-22.622 0-40.96-18.338-40.96-40.96v-81.92c0-22.622 18.338-40.96 40.96-40.96h40.96v-307.2c0-11.311 9.169-20.48 20.48-20.48s20.48 9.169 20.48 20.48v307.2c22.622 0 40.96 18.338 40.96 40.96h696.32c0-22.622 18.338-40.96 40.96-40.96v-696.32c-22.622 0-40.96-18.338-40.96-40.96h-307.2c-11.311 0-20.48-9.169-20.48-20.48s9.169-20.48 20.48-20.48h307.2v-40.96c0-22.622 18.338-40.96 40.96-40.96h81.92c22.622 0 40.96 18.338 40.96 40.96v81.92c0 22.622-18.338 40.96-40.96 40.96h-40.96v696.32zM122.88 837.12h-81.92v81.92h81.92zM983.040 58.88v-81.92h-81.92v81.92zM901.12 837.12v81.92h81.92v-81.92zM719.282 568.402l-86.888 86.876c-11.118 11.117-26.477 17.993-43.442 17.993s-32.324-6.876-43.442-17.993l-527.516-527.499c-11.117-11.118-17.994-26.478-17.994-43.443 0-0.005 0-0.011 0-0.016v-107.359c0-22.622 18.338-40.96 40.96-40.96h107.368c16.967 0.004 32.327 6.883 43.446 18.002l527.507 527.499c11.122 11.119 18.001 26.481 18.001 43.45s-6.879 32.331-18.001 43.45zM162.812-17.039c-3.68-3.706-8.778-6.001-14.412-6.001-0.025 0-0.050 0-0.075 0h-107.365v107.36c0 0.015 0 0.032 0 0.050 0 5.646 2.294 10.756 6 14.449l455.099 455.099 115.859-115.859zM690.319 510.48l-43.438-43.459-115.859 115.859 43.446 43.438c3.706 3.705 8.825 5.996 14.479 5.996s10.773-2.291 14.479-5.996l86.888-86.88c3.706-3.706 5.998-8.826 5.998-14.481 0-5.653-2.291-10.772-5.994-14.477z" />
<glyph unicode="&#xea6d;" glyph-name="research" d="M983.040 693.76l-471.040 266.24-471.040-266.24v-491.52c0-0.324 0.233-0.582 0.246-0.905 0.061-3.404 0.964-6.585 2.51-9.359l0.079-0.029c1.019-1.289 2.148-2.417 3.394-3.404 1.278-1.615 2.69-2.978 4.271-4.124l0.187-0.164 450.56-245.76c2.83-1.573 6.207-2.5 9.8-2.5s6.97 0.926 9.905 2.553l450.582 245.83c1.584 1.156 2.951 2.475 4.12 3.958 1.38 1.097 2.555 2.271 3.576 3.571l0.16 0.171c1.492 2.669 2.395 5.845 2.457 9.226 0 0.342 0.25 0.605 0.25 0.932zM942.080 237.527l-256.082 146.334c-2.964 1.765-6.535 2.808-10.35 2.808-11.311 0-20.48-9.169-20.48-20.48 0-7.649 4.194-14.319 10.407-17.836l254.975-145.703-388.071-211.677v448.102l409.6 231.535zM491.52 901.374v-248.574c0-11.311 9.169-20.48 20.48-20.48s20.48 9.169 20.48 20.48v248.574l367.317-207.614-387.797-219.189-387.797 219.189zM491.52 439.095v-448.102l-388.076 211.657 254.874 145.641c6.316 3.57 10.509 10.24 10.509 17.889 0 11.311-9.169 20.48-20.48 20.48-3.815 0-7.386-1.043-10.444-2.859l-255.983-146.269v433.078z" />
<glyph unicode="&#xea6e;" glyph-name="robot" d="M286.72 488.96c0 11.311 9.169 20.48 20.48 20.48h81.92c11.311 0 20.48-9.169 20.48-20.48s-9.169-20.48-20.48-20.48h-81.92c-11.311 0-20.48 9.169-20.48 20.48zM716.8 509.44h-81.92c-11.311 0-20.48-9.169-20.48-20.48s9.169-20.48 20.48-20.48h81.92c11.311 0 20.48 9.169 20.48 20.48s-9.169 20.48-20.48 20.48zM1024 366.080v-81.92c0-33.932-27.508-61.44-61.44-61.44h-20.48v-143.36c0-33.932-27.508-61.44-61.44-61.44h-737.28c-33.932 0-61.44 27.508-61.44 61.44v143.36h-20.48c-33.932 0-61.44 27.508-61.44 61.44v81.92c0 33.932 27.508 61.44 61.44 61.44h20.48v184.32c0 33.932 27.508 61.44 61.44 61.44h348.16v83.968c-47.075 9.861-81.92 51.027-81.92 100.331 0 56.554 45.846 102.4 102.4 102.4s102.4-45.846 102.4-102.4c0-49.304-34.846-90.47-81.253-100.214l-0.667-84.085h348.16c33.932 0 61.44-27.508 61.44-61.44v-184.32h20.48c33.932 0 61.44-27.508 61.44-61.44zM512 796.16c33.932 0 61.44 27.508 61.44 61.44s-27.508 61.44-61.44 61.44c-33.932 0-61.44-27.508-61.44-61.44 0.040-33.916 27.524-61.4 61.436-61.44zM81.92 263.68v122.88h-20.48c-11.305-0.014-20.466-9.175-20.48-20.479v-81.921c0.014-11.305 9.175-20.466 20.479-20.48zM901.12 611.84c-0.014 11.305-9.175 20.466-20.479 20.48h-737.281c-11.305-0.014-20.466-9.175-20.48-20.479v-532.481c0.014-11.305 9.175-20.466 20.479-20.48h737.281c11.305 0.014 20.466 9.175 20.48 20.479zM983.040 366.080c-0.014 11.305-9.175 20.466-20.479 20.48h-20.481v-122.88h20.48c11.305 0.014 20.466 9.175 20.48 20.479zM737.28 304.64v-122.88c0-22.622-18.338-40.96-40.96-40.96h-368.64c-22.622 0-40.96 18.338-40.96 40.96v122.88c0 22.622 18.338 40.96 40.96 40.96h368.64c22.622 0 40.96-18.338 40.96-40.96zM409.6 181.76v122.88h-81.92v-122.88zM573.44 181.76v122.88h-122.88v-122.88zM696.32 304.64h-81.92v-122.88h81.92z" />
<glyph unicode="&#xea6f;" glyph-name="rocket" d="M512 550.4c-56.554 0-102.4-45.846-102.4-102.4s45.846-102.4 102.4-102.4c56.554 0 102.4 45.846 102.4 102.4s-45.846 102.4-102.4 102.4zM512 386.56c-33.932 0-61.44 27.508-61.44 61.44s27.508 61.44 61.44 61.44c33.932 0 61.44-27.508 61.44-61.44-0.040-33.916-27.524-61.4-61.436-61.44zM491.52 693.76c0 11.311 9.169 20.48 20.48 20.48s20.48-9.169 20.48-20.48c0-11.311-9.169-20.48-20.48-20.48s-20.48 9.169-20.48 20.48zM775.315 511.009c-28.688 218.821-263.315 448.991-263.315 448.991s-234.627-230.171-263.315-448.991c-49.209-52.154-125.805-137.937-125.805-165.409 0-51.2 52.908-409.6 81.92-409.6 24.326 24.326 27.218 199.999 124.076 238.080 12.343-17.495 25.407-32.849 39.72-46.938l0.044-109.222c0-22.622 18.338-40.96 40.96-40.96h44.72c8.574-24.053 31.152-40.961 57.68-40.961s49.106 16.908 57.547 40.535l44.853 0.427c22.622 0 40.96 18.338 40.96 40.96v109.179c14.357 14.132 27.421 29.486 39.055 45.925 97.567-37.024 100.459-212.698 124.785-237.024 29.016 0 81.92 358.4 81.92 409.6 0 27.472-76.595 113.254-125.805 165.409zM203.784 72.421c-15.761 73.393-29.84 165.555-39.028 259.154 23.783 50.899 51.062 85.604 81.808 116.891 0.682-87.621 22.901-169.799 61.559-241.84-52.397-26.763-89.718-75.191-104.026-132.715zM409.6 17.92v75.796c11.78-8.043 25.252-15.373 39.452-21.31l1.508-54.487zM512-23.040c-11.305 0.014-20.466 9.175-20.48 20.479v63.006c6.156-0.996 13.251-1.565 20.48-1.565s14.324 0.569 21.245 1.665l-0.765-63.104c-0.014-11.305-9.175-20.466-20.479-20.48zM614.4 17.92h-40.96v53.932c15.708 6.496 29.18 13.826 41.755 22.378zM512 99.84c-94.446 0-225.28 128.111-225.28 368.64 0 167.145 158.81 359.031 225.28 432.013 66.47-72.983 225.28-264.868 225.28-432.013 0-240.529-130.834-368.64-225.28-368.64zM820.216 72.421c-14.622 59.014-51.942 107.442-101.935 136.435 36.254 69.809 58.473 151.987 59.237 239.286 30.663-30.965 57.942-65.669 81.133-103.168-8.594-106.998-22.674-199.161-41.388-289.629z" />
<glyph unicode="&#xea9d;" glyph-name="desktop-wifi" d="M696.32 632.32c0 22.622 18.338 40.96 40.96 40.96s40.96-18.338 40.96-40.96c0-22.622-18.338-40.96-40.96-40.96s-40.96 18.338-40.96 40.96zM718.402 877.101c5.925 0.52 12.818 0.817 19.78 0.817 63.652 0 121.514-24.788 164.46-65.237 48.932-44.799 79.764-108.917 80.397-180.247 0.001-6.516-0.478-12.775-0.999-19.034-0.037-0.459-0.058-0.995-0.058-1.535 0-10.772 8.307-19.604 18.864-20.44 0.592-0.066 1.112-0.066 1.673-0.066 10.752 0.012 19.563 8.308 20.394 18.848 0.525 7.366 1.086 14.673 1.086 22.112-0.651 83.312-36.536 158.116-93.467 210.342-50.376 47.275-118.070 76.199-192.519 76.199-8.031 0-15.982-0.337-23.842-0.996-9.567-0.794-17.838-9.604-17.838-20.347 0-0.572 0.023-1.138 0.069-1.698 1.232-10.562 10.188-18.74 21.054-18.74 0.332 0 0.663 0.008 0.992 0.023zM717.869 754.381c4.767 0.581 10.287 0.912 15.884 0.912 34.933 0 66.85-12.914 91.237-34.229 21.701-21.85 35.216-52.161 35.216-85.628 0-1.174-0.017-2.343-0.050-3.509-0.217-6.246-0.877-12.335-1.951-18.279-0.021-0.108-0.099-1.123-0.099-2.157 0-10.191 7.596-18.609 17.435-19.899 0.946-0.145 1.925-0.225 2.921-0.232 10.489 0.325 19.053 8.131 20.555 18.241 1.189 6.743 1.943 14.47 2.101 22.342 0.029 1.244 0.044 2.526 0.044 3.811 0 45.176-18.416 86.050-48.149 115.527-31.416 28.225-73.163 45.478-118.94 45.478-6.464 0-12.849-0.344-19.135-1.015-10.070-0.605-18.615-9.57-18.615-20.531 0-0.422 0.013-0.842 0.038-1.258 0.692-10.933 9.776-19.584 20.88-19.584 0.221 0 0.442 0.003 0.661 0.010zM1024 488.96v-327.68c-0.037-33.917-27.523-61.403-61.436-61.44h-339.972l24.576-122.88h69.632c11.311 0 20.48-9.169 20.48-20.48s-9.169-20.48-20.48-20.48h-409.6c-11.311 0-20.48 9.169-20.48 20.48s9.169 20.48 20.48 20.48h69.632l24.576 122.88h-339.968c-33.917 0.037-61.403 27.523-61.44 61.436v696.324c0.037 33.917 27.523 61.403 61.436 61.44h532.484c11.311 0 20.48-9.169 20.48-20.48s-9.169-20.48-20.48-20.48h-532.48c-11.311 0-20.48-9.169-20.48-20.48v-552.96h942.080v184.32c0 11.311 9.169 20.48 20.48 20.48s20.48-9.169 20.48-20.48zM605.389-23.040l-24.576 122.88h-137.626l-24.576-122.88zM983.040 263.68h-942.080v-102.4c0-11.311 9.169-20.48 20.48-20.48h901.12c11.311 0 20.48 9.169 20.48 20.48z" />
<glyph unicode="&#xead3;" glyph-name="note-tick" d="M798.72 878.080h-61.44v61.44c0 11.311-9.169 20.48-20.48 20.48s-20.48-9.169-20.48-20.48v-61.44h-163.84v61.44c0 11.311-9.169 20.48-20.48 20.48s-20.48-9.169-20.48-20.48v-61.44h-163.84v61.44c0 11.311-9.169 20.48-20.48 20.48s-20.48-9.169-20.48-20.48v-61.44h-61.44c-33.917-0.037-61.403-27.523-61.44-61.436v-819.204c0.037-33.917 27.523-61.403 61.436-61.44h573.444c33.917 0.037 61.403 27.523 61.44 61.436v819.204c-0.037 33.917-27.523 61.403-61.436 61.44zM819.2-2.56c0-11.311-9.169-20.48-20.48-20.48h-573.44c-11.311 0-20.48 9.169-20.48 20.48v716.8h614.4zM819.2 755.2h-614.4v61.44c0 11.311 9.169 20.48 20.48 20.48h573.44c11.311 0 20.48-9.169 20.48-20.48zM335.053 329.859c-4.519 3.785-7.372 9.43-7.372 15.741 0 11.317 9.174 20.491 20.491 20.491 5.006 0 9.593-1.795 13.151-4.777l108.467-90.414 191.578 191.578c3.679 3.557 8.697 5.749 14.228 5.749 11.311 0 20.48-9.169 20.48-20.48 0-5.53-2.192-10.549-5.755-14.233l-204.794-204.794c-3.707-3.711-8.83-6.007-14.49-6.007-5.002 0-9.585 1.793-13.141 4.771z" />
<glyph unicode="&#xeaed;" glyph-name="broadcast" d="M921.539 918.958c-4.217-0.007-8.129-1.303-11.366-3.514l-259.097-189.444c-10.020-7.398-22.616-11.842-36.249-11.842-0.005 0-0.009 0-0.014 0h-369.053c-113.108 0-204.8-91.692-204.8-204.8s91.692-204.8 204.8-204.8h40.96v-184.32c0-0.029 0-0.063 0-0.096 0-33.889 27.473-61.362 61.362-61.362 4.293 0 8.482 0.441 12.526 1.279l73.92 14.791c28.361 5.822 49.389 30.579 49.389 60.247 0 3.067-0.225 6.081-0.659 9.027l-22.922 160.417h154.472c13.633-0.006 26.226-4.451 36.414-11.968l258.994-189.362c3.17-2.17 7.084-3.47 11.302-3.482 0.019 0 0.038 0 0.056 0 11.324 0 20.505 9.18 20.505 20.505 0 0.013 0 0.026 0 0.039v778.177c0 0 0 0 0 0 0 11.327-9.182 20.509-20.509 20.509-0.012 0-0.023 0-0.035 0zM426.496 115.028l-74.318-14.848c-1.243-0.26-2.671-0.41-4.134-0.41-0.004 0-0.008 0-0.012 0-11.255 0.072-20.352 9.213-20.352 20.48 0 0 0 0 0 0v184.32h91.279l23.794-166.539c0.131-0.872 0.206-1.877 0.206-2.901 0-9.894-7.008-18.151-16.331-20.079zM614.4 345.518h-368.64c-90.486 0-163.84 73.354-163.84 163.84s73.354 163.84 163.84 163.84h286.72v-143.36c0-11.311 9.169-20.48 20.48-20.48s20.48 9.169 20.48 20.48v143.36h40.96zM901.12 160.637s-238.825 173.199-245.76 176.202v345.043c6.935 3.011 245.76 176.251 245.76 176.251z" />
<glyph unicode="&#xeaee;" glyph-name="call" d="M964.801 196.358l-117.408 117.412c-11.27 11.267-26.837 18.235-44.032 18.235s-32.762-6.968-44.032-18.235l-50.569-50.569c-7.509-7.519-17.889-12.171-29.354-12.171-8.044 0-15.552 2.289-21.911 6.252-72.29 43.573-135.101 91.36-192.268 145.083-52.59 56.034-100.377 118.847-141.242 186.319-6.67 11.179-8.959 18.688-8.959 26.733 0 11.466 4.652 21.846 12.171 29.356l50.57 50.57c11.272 11.268 18.243 26.836 18.243 44.032s-6.972 32.765-18.243 44.032l-117.408 117.396c-11.268 11.272-26.836 18.243-44.032 18.243s-32.765-6.972-44.032-18.243l-70.476-70.48c-37.595-37.538-60.851-89.426-60.851-146.746 0-43.91 13.648-84.633 36.933-118.157 77.039-115.885 156.513-217.416 243.023-312.427 91.092-82.591 192.611-162.057 299.825-233.666 42.185-28.713 82.909-42.362 126.82-42.362 57.322 0 109.212 23.26 146.745 60.857l70.487 70.483c11.269 11.267 18.239 26.834 18.239 44.028s-6.97 32.761-18.239 44.028zM935.838 137.257l-70.484-70.48c-30.123-30.185-71.771-48.859-117.781-48.859-35.237 0-67.916 10.953-94.817 29.64-113.871 75.717-213.508 153.606-306.823 238.332-80.746 89.34-158.644 188.989-228.915 294.166-24.127 35.61-35.067 68.282-35.067 103.51 0 46.009 18.662 87.659 48.829 117.795l70.489 70.481c3.855 3.856 9.18 6.241 15.063 6.241s11.208-2.385 15.063-6.241l117.404-117.404c3.851-3.859 6.232-9.186 6.232-15.069s-2.381-11.21-6.232-15.070l-50.569-50.569c-14.956-14.898-24.211-35.51-24.211-58.284 0-15.974 4.553-30.884 12.432-43.504 45.213-74.987 94.975-140.282 150.946-199.66 58.264-54.853 123.56-104.614 193.733-147.132 17.43-10.549 32.328-15.082 48.285-15.082 22.776 0 43.395 9.237 58.315 24.169l50.57 50.562c3.857 3.853 9.184 6.236 15.067 6.236s11.21-2.383 15.067-6.236l117.403-117.412c3.845-3.86 6.222-9.184 6.222-15.063s-2.377-11.203-6.223-15.064z" />
<glyph unicode="&#xeafb;" glyph-name="chat-thread" d="M819.2 693.76c0-11.311-9.169-20.48-20.48-20.48h-409.6c-11.311 0-20.48 9.169-20.48 20.48s9.169 20.48 20.48 20.48h409.6c11.311 0 20.48-9.169 20.48-20.48zM798.72 550.4h-409.6c-11.311 0-20.48-9.169-20.48-20.48s9.169-20.48 20.48-20.48h409.6c11.311 0 20.48 9.169 20.48 20.48s-9.169 20.48-20.48 20.48zM1024 857.518v-491.438c0-33.932-27.508-61.44-61.44-61.44h-102.4v-122.88c0-0.013 0-0.029 0-0.045 0-22.642-18.355-40.997-40.997-40.997-0.050 0-0.101 0-0.151 0-3.812 0.096-7.452 0.714-10.892 1.784-14.414-2.484-356.331-1.624-371.224-1.624l-207.52-155.656c-6.689-5.142-15.179-8.246-24.392-8.262-0.046 0-0.097 0-0.147 0-22.642 0-40.997 18.355-40.997 40.997 0 0.016 0 0.032 0 0.048v122.878h-102.4c-33.932 0-61.44 27.508-61.44 61.44v491.438c0 33.932 27.508 61.44 61.44 61.44h102.4v102.318c0 33.932 27.508 61.44 61.44 61.44h737.28c33.932 0 61.44-27.508 61.44-61.44zM750.932 181.76l-163.84 122.88h-361.812c-33.932 0-61.44 27.508-61.44 61.44v348.16h-102.4c-11.304-0.016-20.464-9.176-20.48-20.478v-491.44c0-11.311 9.169-20.48 20.48-20.48l143.36-0.082v-163.758l218.341 163.758zM983.040 857.518c0 11.311-9.169 20.48-20.48 20.48h-737.28c-11.311 0-20.48-9.169-20.48-20.48v-491.438c0-11.311 9.169-20.48 20.48-20.48h375.48l218.44-163.84v163.84h143.36c11.311 0 20.48 9.169 20.48 20.48z" />
<glyph unicode="&#xeb31;" glyph-name="typing-chat" d="M962.56 959.918h-860.16c-33.917-0.037-61.403-27.523-61.44-61.436v-655.364c0.037-33.917 27.523-61.403 61.436-61.44h477.724c4.732-0.022 9.087-1.62 12.571-4.296l201.712-151.143c6.802-5.216 15.432-8.359 24.797-8.359 22.621 0 40.96 18.338 40.96 40.959v122.839h102.4c33.917 0.037 61.403 27.523 61.44 61.436v655.364c-0.037 33.917-27.523 61.403-61.436 61.44zM983.040 243.118c-0.016-11.304-9.176-20.464-20.478-20.48h-114.69c-15.825-0.026-28.646-12.847-28.672-28.67l-0.119-135.043-201.761 151.179c-10.215 7.8-23.154 12.51-37.192 12.542h-477.728c-11.304 0.016-20.464 9.176-20.48 20.478v655.362c0.016 11.304 9.176 20.464 20.478 20.48h860.162c11.304-0.016 20.464-9.176 20.48-20.478zM368.64 550.318c0-22.622-18.338-40.96-40.96-40.96s-40.96 18.338-40.96 40.96c0 22.622 18.338 40.96 40.96 40.96s40.96-18.338 40.96-40.96zM573.44 550.318c0-22.622-18.338-40.96-40.96-40.96s-40.96 18.338-40.96 40.96c0 22.622 18.338 40.96 40.96 40.96s40.96-18.338 40.96-40.96zM778.24 550.318c0-22.622-18.338-40.96-40.96-40.96s-40.96 18.338-40.96 40.96c0 22.622 18.338 40.96 40.96 40.96s40.96-18.338 40.96-40.96z" />
<glyph unicode="&#xec7b;" glyph-name="arrow-right" d="M901.12 488.96c0-0.007 0-0.015 0-0.023 0-5.648-2.294-10.76-6-14.456l-286.72-286.72c-3.679-3.557-8.697-5.749-14.228-5.749-11.311 0-20.48 9.169-20.48 20.48 0 5.53 2.192 10.549 5.755 14.233l251.755 251.755h-810.721c-11.311 0-20.48 9.169-20.48 20.48s9.169 20.48 20.48 20.48h810.721l-251.761 251.761c-3.557 3.679-5.749 8.697-5.749 14.228 0 11.311 9.169 20.48 20.48 20.48 5.53 0 10.549-2.192 14.233-5.755l286.714-286.714c3.707-3.696 6.001-8.809 6.001-14.457 0-0.008 0-0.016 0-0.024z" />
<glyph unicode="&#xec96;" glyph-name="chevron-left" d="M608.399 93.839c3.857-3.729 6.252-8.95 6.252-14.731 0-11.311-9.169-20.48-20.48-20.48-5.781 0-11.002 2.395-14.725 6.247l-368.646 368.646c-3.705 3.706-5.996 8.825-5.996 14.479s2.291 10.773 5.996 14.479l368.64 368.64c3.729 3.857 8.95 6.252 14.731 6.252 11.311 0 20.48-9.169 20.48-20.48 0-5.781-2.395-11.002-6.247-14.725l-354.166-354.166z" />
<glyph unicode="&#xec9a;" glyph-name="chevron-right" d="M772.239 433.521l-368.64-368.64c-3.679-3.557-8.697-5.749-14.228-5.749-11.311 0-20.48 9.169-20.48 20.48 0 5.53 2.192 10.549 5.755 14.233l354.155 354.155-354.161 354.161c-3.557 3.679-5.749 8.697-5.749 14.228 0 11.311 9.169 20.48 20.48 20.48 5.53 0 10.549-2.192 14.233-5.755l368.634-368.634c3.705-3.706 5.996-8.825 5.996-14.479s-2.291-10.773-5.996-14.479z" />
<glyph unicode="&#xeca4;" glyph-name="outward-pointing" d="M573.44 448c0-33.932-27.508-61.44-61.44-61.44s-61.44 27.508-61.44 61.44c0 33.932 27.508 61.44 61.44 61.44s61.44-27.508 61.44-61.44zM962.56 919.040h-245.76c-11.311 0-20.48-9.169-20.48-20.48s9.169-20.48 20.48-20.48h196.321l-292.721-292.721c-3.857-3.729-6.252-8.95-6.252-14.731 0-11.311 9.169-20.48 20.48-20.48 5.781 0 11.002 2.395 14.725 6.247l292.726 292.726v-196.321c0-11.311 9.169-20.48 20.48-20.48s20.48 9.169 20.48 20.48v245.76c0 11.311-9.169 20.48-20.48 20.48zM962.56 263.68c-11.311 0-20.48-9.169-20.48-20.48v-196.321l-292.721 292.721c-3.679 3.557-8.697 5.749-14.228 5.749-11.311 0-20.48-9.169-20.48-20.48 0-5.53 2.192-10.549 5.755-14.233l292.715-292.715h-196.321c-11.311 0-20.48-9.169-20.48-20.48s9.169-20.48 20.48-20.48h245.76c11.311 0 20.48 9.169 20.48 20.48v245.76c0 11.311-9.169 20.48-20.48 20.48zM110.879 878.080h196.321c11.311 0 20.48 9.169 20.48 20.48s-9.169 20.48-20.48 20.48h-245.76c-11.311 0-20.48-9.169-20.48-20.48v-245.76c0-11.311 9.169-20.48 20.48-20.48s20.48 9.169 20.48 20.48v196.321l292.721-292.721c3.679-3.557 8.697-5.749 14.228-5.749 11.311 0 20.48 9.169 20.48 20.48 0 5.53-2.192 10.549-5.755 14.233zM389.12 345.6c-0.007 0-0.015 0-0.023 0-5.648 0-10.76-2.294-14.456-6l-292.721-292.721v196.321c0 11.311-9.169 20.48-20.48 20.48s-20.48-9.169-20.48-20.48v-245.76c0-11.311 9.169-20.48 20.48-20.48h245.76c11.311 0 20.48 9.169 20.48 20.48s-9.169 20.48-20.48 20.48h-196.321l292.721 292.721c3.705 3.706 5.996 8.825 5.996 14.479 0 11.309-9.167 20.477-20.475 20.48z" />
<glyph unicode="&#xed07;" glyph-name="alarm" d="M983.040 755.2c0 0.145 0.001 0.316 0.001 0.488 0 90.217-73.135 163.353-163.353 163.353-57.762 0-108.522-29.98-137.567-75.229-50.429 21.422-108.774 34.27-170.121 34.27s-119.692-12.848-172.492-36c-26.674 46.979-77.434 76.959-135.196 76.959-90.217 0-163.353-73.135-163.353-163.353 0-57.762 29.98-108.522 75.229-137.568-21.421-50.432-34.269-108.779-34.269-170.128 0-147.267 74.033-277.244 186.911-354.742l-61.872-127.612c-1.364-2.669-2.163-5.821-2.163-9.161 0-11.312 9.17-20.482 20.482-20.482 7.973 0 14.882 4.555 18.266 11.205l61.805 123.627c59.644-33.3 130.854-52.907 206.643-52.907s146.999 19.608 208.834 54.027l59.561-124.63c3.438-6.766 10.347-11.321 18.319-11.321 11.312 0 20.482 9.17 20.482 20.482 0 3.339-0.799 6.492-2.216 9.277l-63.262 126.548c114.339 78.446 188.371 208.422 188.371 355.689 0 61.349-12.847 119.696-35.999 172.5 46.915 26.52 76.886 77.106 76.958 134.697zM819.2 878.080c0.139 0.001 0.304 0.001 0.469 0.001 67.607 0 122.413-54.806 122.413-122.413 0-41.666-20.817-78.471-52.618-100.58-40.596 71.84-98.535 129.779-168.451 168.85 20.058 33.245 56.684 54.043 98.173 54.142zM81.92 755.2c-0.001 0.14-0.001 0.307-0.001 0.473 0 67.607 54.806 122.413 122.413 122.413 41.666 0 78.471-20.817 100.58-52.618-71.841-40.597-129.78-98.538-168.85-168.455-33.245 20.058-54.043 56.684-54.142 98.173zM512 58.88c-214.905 0-389.12 174.215-389.12 389.12s174.215 389.12 389.12 389.12c214.905 0 389.12-174.215 389.12-389.12-0.252-214.803-174.316-388.868-389.095-389.12zM690.307 298.66c3.707-3.706 6-8.827 6-14.483 0-11.311-9.17-20.481-20.481-20.481-5.655 0-10.775 2.292-14.481 5.998l-163.996 164.069c-3.586 3.647-5.807 8.646-5.829 14.164v245.834c0 11.311 9.169 20.48 20.48 20.48s20.48-9.169 20.48-20.48v-237.273z" />
<glyph unicode="&#xed08;" glyph-name="alert" d="M924.086 322.634l-54.272 54.272c-6.073 6.073-10.247 14.045-11.557 22.948l-42.363 296.581c-22.011 149.832-149.671 263.558-303.892 263.558s-281.882-113.726-303.691-261.889l-42.542-298.027c-1.337-9.126-5.511-17.098-11.584-23.171l-54.272-54.272c-11.117-11.118-17.994-26.477-17.994-43.442v-35.992c0-33.932 27.508-61.44 61.44-61.44h737.28c33.932 0 61.44 27.508 61.44 61.44v35.992c0 16.965-6.876 32.324-17.994 43.442zM901.12 243.2c0-11.311-9.169-20.48-20.48-20.48h-737.28c-11.311 0-20.48 9.169-20.48 20.48v35.992c0.016 5.652 2.304 10.766 5.997 14.48l54.267 54.263c12.121 12.166 20.465 28.103 23.12 45.899l42.392 296.814c19.074 129.84 129.7 228.391 263.344 228.391s244.27-98.551 263.169-226.944l42.511-297.808c2.711-18.245 11.053-34.18 23.174-46.349l54.269-54.269c3.691-3.713 5.979-8.825 5.997-14.472zM777.921 924.881c-3.685 3.703-5.964 8.809-5.964 14.447 0 11.311 9.169 20.48 20.48 20.48 5.479 0 10.456-2.152 14.131-5.656 73.567-72.011 122.521-168.926 133.204-277.086 0.207-2.443 0.24-3.115 0.24-3.795 0-10.632-8.101-19.371-18.468-20.382-0.723-0.048-1.382-0.089-2.026-0.089-10.622 0.015-19.348 8.115-20.355 18.475-9.894 100.073-54.389 188.142-121.173 253.536zM84.079 675.201c10.833 110.025 59.786 206.939 133.282 278.88 3.789 3.805 8.923 6.111 14.596 6.111 11.311 0 20.48-9.169 20.48-20.48 0-5.832-2.437-11.094-6.349-14.824-66.865-65.471-111.361-153.54-121.113-251.828-1.15-12.144-9.873-20.243-20.492-20.261-0.641 0-1.3 0.041-1.943 0.082-10.45 1.018-18.552 9.757-18.552 20.389 0 0.68 0.033 1.351 0.098 2.014zM613.794 140.8h41.566c-11.139-70.005-71.076-122.872-143.36-122.872s-132.221 52.868-143.251 122.046l41.458 0.827c10.614-47.168 52.147-81.876 101.786-81.876s91.171 34.708 101.654 81.179z" />
<glyph unicode="&#xed2e;" glyph-name="attachment" d="M826.696 470.217c3.713-3.676 6.012-8.774 6.012-14.41s-2.299-10.733-6.010-14.408l-318.937-316.983c-40.949-40.51-97.286-65.536-159.468-65.536s-118.519 25.026-159.488 65.556c-40.716 40.461-65.928 96.522-65.928 158.471s25.213 118.010 65.937 158.479l391.433 389.033c29.783 29.457 70.754 47.655 115.976 47.655s86.193-18.198 115.991-47.67c29.61-29.428 47.946-70.2 47.946-115.255s-18.336-85.827-47.952-115.261l-362.435-360.206c-18.613-18.414-44.22-29.79-72.485-29.79s-53.872 11.376-72.494 29.799c-18.507 18.391-29.968 43.873-29.968 72.032s11.461 53.64 29.972 72.035l347.932 345.806c3.719 3.689 8.841 5.969 14.496 5.969s10.777-2.28 14.497-5.97c3.71-3.675 6.009-8.773 6.009-14.408s-2.298-10.733-6.009-14.408l-347.924-345.79c-11.11-11.042-17.986-26.333-17.986-43.229s6.876-32.187 17.983-43.226c11.171-11.051 26.536-17.877 43.494-17.877s32.323 6.825 43.497 17.879l362.421 360.193c22.22 22.081 35.973 52.659 35.973 86.45s-13.753 64.37-35.967 86.444c-22.342 22.103-53.071 35.754-86.989 35.754s-64.647-13.651-86.994-35.758l-391.411-389.011c-33.33-33.119-53.959-78.985-53.959-129.669s20.629-96.55 53.949-129.66c33.513-33.153 79.606-53.629 130.481-53.629s96.969 20.475 130.488 53.635l318.919 316.965c3.719 3.69 8.842 5.971 14.498 5.971s10.778-2.281 14.499-5.972z" />
<glyph unicode="&#xed43;" glyph-name="doc-attachment" d="M450.56 488.96c0 11.311 9.169 20.48 20.48 20.48h286.72c11.311 0 20.48-9.169 20.48-20.48s-9.169-20.48-20.48-20.48h-286.72c-11.311 0-20.48 9.169-20.48 20.48zM389.12 304.64h368.64c11.311 0 20.48 9.169 20.48 20.48s-9.169 20.48-20.48 20.48h-368.64c-11.311 0-20.48-9.169-20.48-20.48s9.169-20.48 20.48-20.48zM471.040 632.32h286.72c11.311 0 20.48 9.169 20.48 20.48s-9.169 20.48-20.48 20.48h-286.72c-11.311 0-20.48-9.169-20.48-20.48s9.169-20.48 20.48-20.48zM921.6 878.080h-491.52c-11.311 0-20.48-9.169-20.48-20.48s9.169-20.48 20.48-20.48h491.52c11.311 0 20.48-9.169 20.48-20.48v-778.24c0-11.311-9.169-20.48-20.48-20.48h-696.32c-11.311 0-20.48 9.169-20.48 20.48v368.64c0 11.311-9.169 20.48-20.48 20.48s-20.48-9.169-20.48-20.48v-368.64c0-33.932 27.508-61.44 61.44-61.44h696.32c33.932 0 61.44 27.508 61.44 61.44v778.24c0 33.932-27.508 61.44-61.44 61.44zM696.32 120.32c0-11.311 9.169-20.48 20.48-20.48h122.88c11.311 0 20.48 9.169 20.48 20.48s-9.169 20.48-20.48 20.48h-122.88c-11.311 0-20.48-9.169-20.48-20.48zM327.68 652.8v204.8c0 11.311-9.169 20.48-20.48 20.48s-20.48-9.169-20.48-20.48v-204.8c0-56.554-45.846-102.4-102.4-102.4s-102.4 45.846-102.4 102.4v225.28c0 22.622 18.338 40.96 40.96 40.96s40.96-18.338 40.96-40.96v-184.32c0-11.311 9.169-20.48 20.48-20.48s20.48 9.169 20.48 20.48v184.32c0 45.243-36.677 81.92-81.92 81.92s-81.92-36.677-81.92-81.92v-225.28c0-79.176 64.184-143.36 143.36-143.36s143.36 64.184 143.36 143.36z" />
<glyph unicode="&#xed8b;" glyph-name="dollar-sign" d="M512 960c-282.77 0-512-229.23-512-512s229.23-512 512-512c282.77 0 512 229.23 512 512s-229.23 512-512 512zM512-23.040c-260.148 0-471.040 210.892-471.040 471.040s210.892 471.040 471.040 471.040c260.148 0 471.040-210.892 471.040-471.040-0.305-260.026-211.015-470.735-471.011-471.040zM655.36 591.36v-20.48c0-11.311-9.169-20.48-20.48-20.48s-20.48 9.169-20.48 20.48v20.48c-0.023 22.612-18.348 40.937-40.958 40.96h-89.295c-41.188-0.1-74.539-33.513-74.539-74.715 0-32.771 21.099-60.615 50.454-70.688l116.324-38.798c46.293-15.824 78.986-58.95 78.986-109.711 0-63.833-51.699-115.591-115.509-115.687h-7.382v-20.48c0-11.311-9.169-20.48-20.48-20.48s-20.48 9.169-20.48 20.48v20.48h-40.96c-45.222 0.054-81.866 36.698-81.92 81.915v20.485c0 11.311 9.169 20.48 20.48 20.48s20.48-9.169 20.48-20.48v-20.48c0.023-22.612 18.348-40.937 40.958-40.96h89.295c41.188 0.1 74.539 33.513 74.539 74.715 0 32.771-21.099 60.615-50.454 70.688l-116.324 38.798c-46.293 15.824-78.986 58.95-78.986 109.711 0 63.833 51.699 115.591 115.509 115.687h7.382v20.48c0 11.311 9.169 20.48 20.48 20.48s20.48-9.169 20.48-20.48v-20.48h40.96c45.222-0.054 81.866-36.698 81.92-81.915z" />
<glyph unicode="&#xed8d;" glyph-name="donut-chart" d="M700.26 259.74l173.777-173.781c74.808 74.935 126.449 173.018 143.255 282.577l-242.354 39.622c-8.923-58.45-35.777-109.454-74.682-148.422zM969.368 337.269c-17.919-74.163-51.472-138.77-97.131-192.821l-115.955 117.208c21.937 28.485 39.204 61.89 49.887 98.117zM593.437 952.918l-39.088-242.364c127.638-21.061 223.811-130.564 223.891-262.545v-0.119l245.76 0.041c-0.124 253.855-185.083 464.475-427.588 504.581zM816.538 488.841c-16.201 120.795-101.083 218.202-213.493 252.464l24.053 162.989c193.241-48.863 336.906-213.267 354.114-413.792zM512 181.76c-147.040 0-266.24 119.2-266.24 266.24s119.2 266.24 266.24 266.24v245.76c-0.176 0-0.385 0-0.593 0-282.77 0-512-229.23-512-512s229.23-512 512-512c110.557 0 212.93 35.041 296.618 94.623l-142.912 199.789c-42.542-30.427-95.621-48.652-152.957-48.652-0.055 0-0.109 0-0.164 0zM512-23.040c-0.079 0-0.172 0-0.265 0-260.148 0-471.040 210.892-471.040 471.040 0 245.822 188.304 447.663 428.537 469.148l1.808-164.668c-151.233-20.805-266.47-149.189-266.47-304.488 0-169.662 137.538-307.2 307.2-307.2 51.856 0 100.711 12.848 143.555 35.535l93.076-135.446c-67.539-40.175-148.915-63.923-235.837-63.923-0.198 0-0.396 0-0.594 0z" />
<glyph unicode="&#xed93;" glyph-name="graphic-moderate" d="M839.68 345.6h-40.96c-33.932 0-61.44-27.508-61.44-61.44v-286.72c0-33.932 27.508-61.44 61.44-61.44h40.96c33.932 0 61.44 27.508 61.44 61.44v286.72c0 33.932-27.508 61.44-61.44 61.44zM860.16-2.56c-0.014-11.305-9.175-20.466-20.479-20.48h-40.961c-11.305 0.014-20.466 9.175-20.48 20.479v286.721c0.014 11.305 9.175 20.466 20.479 20.48h40.961c11.305-0.014 20.466-9.175 20.48-20.479zM552.96 837.12h-40.96c-33.932 0-61.44-27.508-61.44-61.44v-778.24c0-33.932 27.508-61.44 61.44-61.44h40.96c33.932 0 61.44 27.508 61.44 61.44v778.24c0 33.932-27.508 61.44-61.44 61.44zM573.44-2.56c-0.014-11.305-9.175-20.466-20.479-20.48h-40.961c-11.305 0.014-20.466 9.175-20.48 20.479v778.241c0.014 11.305 9.175 20.466 20.479 20.48h40.961c11.305-0.014 20.466-9.175 20.48-20.479zM266.24 509.44h-40.96c-33.932 0-61.44-27.508-61.44-61.44v-450.56c0-33.932 27.508-61.44 61.44-61.44h40.96c33.932 0 61.44 27.508 61.44 61.44v450.56c0 33.932-27.508 61.44-61.44 61.44zM286.72-2.56c-0.014-11.305-9.175-20.466-20.479-20.48h-40.961c-11.305 0.014-20.466 9.175-20.48 20.479v450.561c0.014 11.305 9.175 20.466 20.479 20.48h40.961c11.305-0.014 20.466-9.175 20.48-20.479z" />
<glyph unicode="&#xed94;" glyph-name="graphic-moderate2" d="M839.68 345.6h-40.96c-33.932 0-61.44-27.508-61.44-61.44v-286.72c0-33.932 27.508-61.44 61.44-61.44h40.96c33.932 0 61.44 27.508 61.44 61.44v286.72c0 33.932-27.508 61.44-61.44 61.44zM860.16-2.56c-0.014-11.305-9.175-20.466-20.479-20.48h-40.961c-11.305 0.014-20.466 9.175-20.48 20.479v286.721c0.014 11.305 9.175 20.466 20.479 20.48h40.961c11.305-0.014 20.466-9.175 20.48-20.479zM552.96 837.12h-40.96c-33.932 0-61.44-27.508-61.44-61.44v-778.24c0-33.932 27.508-61.44 61.44-61.44h40.96c33.932 0 61.44 27.508 61.44 61.44v778.24c0 33.932-27.508 61.44-61.44 61.44zM573.44-2.56c-0.014-11.305-9.175-20.466-20.479-20.48h-40.961c-11.305 0.014-20.466 9.175-20.48 20.479v778.241c0.014 11.305 9.175 20.466 20.479 20.48h40.961c11.305-0.014 20.466-9.175 20.48-20.479zM266.24 509.44h-40.96c-33.932 0-61.44-27.508-61.44-61.44v-450.56c0-33.932 27.508-61.44 61.44-61.44h40.96c33.932 0 61.44 27.508 61.44 61.44v450.56c0 33.932-27.508 61.44-61.44 61.44zM286.72-2.56c-0.014-11.305-9.175-20.466-20.479-20.48h-40.961c-11.305 0.014-20.466 9.175-20.48 20.479v450.561c0.014 11.305 9.175 20.466 20.479 20.48h40.961c11.305-0.014 20.466-9.175 20.48-20.479z" />
<glyph unicode="&#xed9a;" glyph-name="online-stock" d="M962.56 919.040h-901.12c-33.917-0.037-61.403-27.523-61.44-61.436v-696.324c0.037-33.917 27.523-61.403 61.436-61.44h339.972l-24.576-122.88h-69.632c-11.311 0-20.48-9.169-20.48-20.48s9.169-20.48 20.48-20.48h409.6c11.311 0 20.48 9.169 20.48 20.48s-9.169 20.48-20.48 20.48h-69.632l-24.576 122.88h339.968c33.917 0.037 61.403 27.523 61.44 61.436v696.324c-0.037 33.917-27.523 61.403-61.436 61.44zM418.611-23.040l24.576 122.88h137.626l24.576-122.88zM983.040 161.28c0-11.311-9.169-20.48-20.48-20.48h-901.12c-11.311 0-20.48 9.169-20.48 20.48v102.4h942.080zM983.040 304.64h-942.080v552.96c0 11.311 9.169 20.48 20.48 20.48h901.12c11.311 0 20.48-9.169 20.48-20.48zM204.8 529.92v-122.88c0-11.311-9.169-20.48-20.48-20.48s-20.48 9.169-20.48 20.48v122.88c0 11.311 9.169 20.48 20.48 20.48s20.48-9.169 20.48-20.48zM368.64 734.72v-327.68c0-11.311-9.169-20.48-20.48-20.48s-20.48 9.169-20.48 20.48v327.68c0 11.311 9.169 20.48 20.48 20.48s20.48-9.169 20.48-20.48zM532.48 488.96v-81.92c0-11.311-9.169-20.48-20.48-20.48s-20.48 9.169-20.48 20.48v81.92c0 11.311 9.169 20.48 20.48 20.48s20.48-9.169 20.48-20.48zM696.32 652.8v-245.76c0-11.311-9.169-20.48-20.48-20.48s-20.48 9.169-20.48 20.48v245.76c0 11.311 9.169 20.48 20.48 20.48s20.48-9.169 20.48-20.48zM860.16 570.88v-163.84c0-11.311-9.169-20.48-20.48-20.48s-20.48 9.169-20.48 20.48v163.84c0 11.311 9.169 20.48 20.48 20.48s20.48-9.169 20.48-20.48z" />
<glyph unicode="&#xeda1;" glyph-name="pie-chart" d="M471.040 919.040v-122.88c-0.195 0-0.426 0.001-0.657 0.001-214.905 0-389.12-174.215-389.12-389.12s174.215-389.12 389.12-389.12c100.636 0 192.35 38.203 261.429 100.898l85.66-88.762c101.922 93.888 165.55 228.005 165.55 376.984 0 282.764-229.22 511.99-511.981 512zM702.849 148.001c-61.281-55.023-142.729-88.67-232.035-88.67-192.159 0-347.935 155.776-347.935 347.935s155.776 347.935 347.935 347.935c0.079 0 0.159 0 0.238 0l-0.012-368.64 251.236-258.552zM512 403.182v473.137c241.918-21.747 430.078-223.528 430.078-469.256 0-123.068-47.197-235.113-124.477-319.022z" />
<glyph unicode="&#xeda4;" glyph-name="presentation-slide-a" d="M962.56 837.12h-901.12c-11.311 0-20.48-9.169-20.48-20.48s9.169-20.48 20.48-20.48h20.48v-593.92c0.037-33.917 27.523-61.403 61.436-61.44h261.029l-74.138-133.419c-1.622-2.867-2.579-6.296-2.579-9.948 0-7.661 4.206-14.339 10.435-17.851 2.944-1.669 6.346-2.621 9.97-2.621 0.030 0 0.060 0 0.091 0 0 0 0.005 0 0.010 0 7.661 0 14.34 4.207 17.852 10.437l85.205 153.403h121.541l85.164-153.301c3.565-6.332 10.243-10.538 17.904-10.539 0.009 0 0.021 0 0.032 0 3.633 0 7.042 0.957 9.989 2.633 6.231 3.513 10.437 10.192 10.437 17.852 0 3.652-0.956 7.082-2.632 10.051l-74.052 133.304h261.026c33.917 0.037 61.403 27.523 61.44 61.436v593.924h20.48c11.311 0 20.48 9.169 20.48 20.48s-9.169 20.48-20.48 20.48zM901.12 202.24c0-11.311-9.169-20.48-20.48-20.48h-737.28c-11.311 0-20.48 9.169-20.48 20.48v593.92h778.24zM573.44 611.84c0 11.311 9.169 20.48 20.48 20.48h163.84c11.311 0 20.48-9.169 20.48-20.48s-9.169-20.48-20.48-20.48h-163.84c-11.311 0-20.48 9.169-20.48 20.48zM573.44 366.080c0 11.311 9.169 20.48 20.48 20.48h163.84c11.311 0 20.48-9.169 20.48-20.48s-9.169-20.48-20.48-20.48h-163.84c-11.311 0-20.48 9.169-20.48 20.48zM573.44 488.96c0 11.311 9.169 20.48 20.48 20.48h163.84c11.311 0 20.48-9.169 20.48-20.48s-9.169-20.48-20.48-20.48h-163.84c-11.311 0-20.48 9.169-20.48 20.48zM348.16 345.6c79.176 0 143.36 64.184 143.36 143.36s-64.184 143.36-143.36 143.36c-79.176 0-143.36-64.184-143.36-143.36s64.184-143.36 143.36-143.36zM348.16 591.36c56.554 0 102.4-45.846 102.4-102.4s-45.846-102.4-102.4-102.4c-56.554 0-102.4 45.846-102.4 102.4 0.068 56.527 45.873 102.332 102.393 102.4z" />
<glyph unicode="&#xeda5;" glyph-name="presentation-slide" d="M962.56 837.12h-901.12c-11.311 0-20.48-9.169-20.48-20.48s9.169-20.48 20.48-20.48h20.48v-593.92c0.037-33.917 27.523-61.403 61.436-61.44h261.029l-74.138-133.419c-1.622-2.867-2.579-6.296-2.579-9.948 0-7.661 4.206-14.339 10.435-17.851 2.944-1.669 6.346-2.621 9.97-2.621 0.030 0 0.060 0 0.091 0 0 0 0.005 0 0.010 0 7.661 0 14.34 4.207 17.852 10.437l85.205 153.403h121.541l85.164-153.301c3.565-6.332 10.243-10.538 17.904-10.539 0.009 0 0.021 0 0.032 0 3.633 0 7.042 0.957 9.989 2.633 6.231 3.513 10.437 10.192 10.437 17.852 0 3.652-0.956 7.082-2.632 10.051l-74.052 133.304h261.026c33.917 0.037 61.403 27.523 61.44 61.436v593.924h20.48c11.311 0 20.48 9.169 20.48 20.48s-9.169 20.48-20.48 20.48zM901.12 202.24c0-11.311-9.169-20.48-20.48-20.48h-737.28c-11.311 0-20.48 9.169-20.48 20.48v593.92h778.24zM573.44 284.16v368.64c0 11.311 9.169 20.48 20.48 20.48s20.48-9.169 20.48-20.48v-368.64c0-11.311-9.169-20.48-20.48-20.48s-20.48 9.169-20.48 20.48zM409.6 284.16v163.84c0 11.311 9.169 20.48 20.48 20.48s20.48-9.169 20.48-20.48v-163.84c0-11.311-9.169-20.48-20.48-20.48s-20.48 9.169-20.48 20.48zM245.76 284.16v163.84c0 11.311 9.169 20.48 20.48 20.48s20.48-9.169 20.48-20.48v-163.84c0-11.311-9.169-20.48-20.48-20.48s-20.48 9.169-20.48 20.48zM737.28 284.16v245.76c0 11.311 9.169 20.48 20.48 20.48s20.48-9.169 20.48-20.48v-245.76c0-11.311-9.169-20.48-20.48-20.48s-20.48 9.169-20.48 20.48z" />
<glyph unicode="&#xedaa;" glyph-name="send-dollar" d="M532.48 448v-20.48h61.44c11.311 0 20.48-9.169 20.48-20.48s-9.169-20.48-20.48-20.48h-143.36v-81.92h122.88c22.622 0 40.96-18.338 40.96-40.96v-81.92c0-22.622-18.338-40.96-40.96-40.96h-40.96v-20.48c0-11.311-9.169-20.48-20.48-20.48s-20.48 9.169-20.48 20.48v20.48h-61.44c-11.311 0-20.48 9.169-20.48 20.48s9.169 20.48 20.48 20.48h143.36v81.92h-122.88c-22.622 0-40.96 18.338-40.96 40.96v81.92c0 22.622 18.338 40.96 40.96 40.96h40.96v20.48c0 11.311 9.169 20.48 20.48 20.48s20.48-9.169 20.48-20.48zM983.040 632.32h-450.56v216.801l87.921-87.921c3.729-3.857 8.95-6.252 14.731-6.252 11.311 0 20.48 9.169 20.48 20.48 0 5.781-2.395 11.002-6.247 14.725l-122.886 122.886c-3.706 3.705-8.825 5.996-14.479 5.996s-10.773-2.291-14.479-5.996l-122.88-122.88c-3.557-3.679-5.749-8.697-5.749-14.228 0-11.311 9.169-20.48 20.48-20.48 5.53 0 10.549 2.192 14.233 5.755l87.915 87.915v-257.761h491.52v-614.4h-942.080v614.4h389.12c11.311 0 20.48 9.169 20.48 20.48s-9.169 20.48-20.48 20.48h-389.12c-22.622 0-40.96-18.338-40.96-40.96v-614.4c0-22.622 18.338-40.96 40.96-40.96h942.080c22.622 0 40.96 18.338 40.96 40.96v614.4c0 22.622-18.338 40.96-40.96 40.96z" />
<glyph unicode="&#xedd4;" glyph-name="profile-picture" d="M512 796.16c-101.797 0-184.32-82.523-184.32-184.32s82.523-184.32 184.32-184.32c101.797 0 184.32 82.523 184.32 184.32s-82.523 184.32-184.32 184.32zM512 468.48c-79.176 0-143.36 64.184-143.36 143.36s64.184 143.36 143.36 143.36c79.176 0 143.36-64.184 143.36-143.36-0.093-79.138-64.222-143.267-143.351-143.36zM512 960c-0.138 0-0.302 0-0.466 0-282.512 0-511.533-229.021-511.533-511.533 0-166.871 79.903-315.079 203.536-408.452l1.292-0.935c84.352-64.331 191.235-103.070 307.165-103.070s222.812 38.739 308.408 103.979l-1.242-0.908q20.48 15.405 39.293 32.719v0c101.911 93.799 165.54 227.838 165.54 376.738 0 282.473-228.99 511.463-511.463 511.463-0.186 0-0.372 0-0.557 0zM512-23.040c-0.068 0-0.149 0-0.23 0-115.652 0-221.52 41.886-303.263 111.316 25.053 146.545 151.336 257.338 303.495 257.338s278.443-110.792 302.578-256.107c-80.826-70.661-186.695-112.547-302.346-112.547-0.082 0-0.165 0-0.247 0zM849.92 120.57c-38.067 153.807-174.887 266.036-337.92 266.036s-299.853-112.23-337.418-263.646c-82.848 82.333-133.622 198.122-133.622 325.769 0 260.148 210.892 471.040 471.040 471.040s471.040-210.892 471.040-471.040c0-127.647-50.774-243.436-133.228-328.271z" />
<glyph unicode="&#xedee;" glyph-name="user-list-d" d="M737.28 775.68c0 11.311 9.169 20.48 20.48 20.48h245.76c11.311 0 20.48-9.169 20.48-20.48s-9.169-20.48-20.48-20.48h-245.76c-11.311 0-20.48 9.169-20.48 20.48zM1003.52 632.32h-245.76c-11.311 0-20.48-9.169-20.48-20.48s9.169-20.48 20.48-20.48h245.76c11.311 0 20.48 9.169 20.48 20.48s-9.169 20.48-20.48 20.48zM1003.52 468.48h-245.76c-11.311 0-20.48-9.169-20.48-20.48s9.169-20.48 20.48-20.48h245.76c11.311 0 20.48 9.169 20.48 20.48s-9.169 20.48-20.48 20.48zM817.971 79.159c0.771-3.647 1.212-7.838 1.212-12.132 0-30.271-21.926-55.42-50.763-60.433-101.021-17.439-217.846-28.139-336.891-29.62-121.948 1.479-238.781 12.18-352.712 31.419-15.934 3.213-37.86 28.363-37.86 58.633 0 4.294 0.441 8.485 1.281 12.53l22.115 110.522c4.227 20.615 18.319 37.208 37.019 44.85l158.888 59.131c16.768 6.832 29.6 20.364 35.343 37.181l18.925 56.814-41.181 17.715c-19.833 8.969-33.875 27.614-36.166 49.749l-32.081 328.181c-0.203 1.872-0.319 4.043-0.319 6.241 0 29.004 20.151 53.301 47.217 59.656 51.632 13.331 112.254 23.402 174.343 28.249 69.567-4.847 130.186-14.919 188.9-29.775 19.98-4.826 40.132-29.123 40.132-58.126 0-2.199-0.116-4.371-0.342-6.51l-32.028-327.651c-2.306-22.404-16.348-41.056-35.798-49.872l-41.559-17.868 18.784-56.369c5.868-17.252 18.7-30.787 35.057-37.473l158.889-59.131c19.11-7.79 33.202-24.383 37.361-44.602zM254.996 694.309c106.578 5.612 208.716 105.308 215.384 139.33-11.782 1.835-25.703 3.087-39.841 3.472-63.055-5.039-120.543-14.739-176.238-28.929-1.892-0.619-8.552-8.682-8.552-18.3 0-0.74 0.039-1.471 0.116-2.191zM413.889 389.911c4.768-2.115 10.33-3.346 16.179-3.346s11.411 1.231 16.44 3.449l124.118 53.399c6.394 3.051 10.889 9.167 11.601 16.394l32.062 327.895c0.074 0.651 0.116 1.406 0.116 2.171 0 9.621-6.654 17.688-15.611 19.849-28.045 6.377-59.22 12.726-88.031 17.707-12.091-63.341-136.131-166.339-251.777-173.859l18.948-193.769c0.799-7.432 5.47-13.612 11.93-16.537zM777.83 71.131l-22.184 110.92c-1.398 6.877-6.1 12.412-12.34 14.95l-158.615 59.032c-27.958 11.367-49.351 33.928-58.901 61.97l-17.924 53.812-45.425-19.542c-9.542-4.216-20.67-6.67-32.371-6.67s-22.828 2.454-32.896 6.876l-44.891 19.336-17.699-53.101c-9.763-28.762-31.158-51.324-58.434-62.443l-159.158-59.229c-6.377-2.587-11.079-8.122-12.454-14.868l-22.21-111.043c-0.261-1.226-0.41-2.635-0.41-4.079 0-4.366 1.366-8.412 3.694-11.736 2.998-4.337 7.667-7.429 13.077-8.347 98.678-16.959 213.177-27.456 329.83-29.032 119.766 1.575 234.263 12.070 345.954 30.835-7.603-0.888-2.934 2.204 0.064 6.54 2.332 3.326 3.701 7.377 3.701 11.747 0 1.442-0.149 2.849-0.432 4.206z" />
<glyph unicode="&#xedf9;" glyph-name="user-plus-c" d="M1024 570.88c0-11.311-9.169-20.48-20.48-20.48h-102.4v-102.4c0-11.311-9.169-20.48-20.48-20.48s-20.48 9.169-20.48 20.48v102.4h-102.4c-11.311 0-20.48 9.169-20.48 20.48s9.169 20.48 20.48 20.48h102.4v102.4c0 11.311 9.169 20.48 20.48 20.48s20.48-9.169 20.48-20.48v-102.4h102.4c11.311 0 20.48-9.169 20.48-20.48zM777.011 38.199c0.771-3.647 1.212-7.838 1.212-12.132 0-30.271-21.926-55.42-50.763-60.433-101.021-17.439-217.846-28.139-336.891-29.62-121.948 1.479-238.781 12.18-352.712 31.419-15.924 3.221-37.841 28.366-37.841 58.63 0 4.295 0.441 8.487 1.281 12.533l22.115 110.522c4.227 20.615 18.319 37.208 37.019 44.85l158.888 59.131c16.759 6.837 29.584 20.368 35.323 37.181l18.925 56.814-41.181 17.715c-19.833 8.969-33.875 27.614-36.166 49.749l-32.081 328.181c-0.203 1.871-0.319 4.042-0.319 6.24 0 29.005 20.153 53.304 47.221 59.657 51.631 13.331 112.252 23.402 174.339 28.249 69.567-4.847 130.186-14.919 188.899-29.775 19.98-4.826 40.132-29.123 40.132-58.126 0-2.199-0.116-4.371-0.342-6.51l-32.028-327.651c-2.306-22.404-16.348-41.056-35.798-49.872l-41.559-17.868 18.784-56.369c5.868-17.252 18.7-30.787 35.057-37.473l158.889-59.131c19.11-7.79 33.202-24.383 37.361-44.602zM214.036 653.349c106.578 5.612 208.716 105.308 215.384 139.33-11.782 1.835-25.703 3.087-39.841 3.472-63.055-5.039-120.543-14.739-176.238-28.929-1.892-0.619-8.552-8.682-8.552-18.3 0-0.74 0.039-1.471 0.116-2.191zM372.929 348.951c4.768-2.115 10.33-3.346 16.179-3.346s11.411 1.231 16.44 3.449l124.118 53.399c6.394 3.051 10.89 9.167 11.605 16.394l32.058 327.895c0.074 0.651 0.116 1.406 0.116 2.171 0 9.621-6.654 17.688-15.611 19.849-28.045 6.377-59.22 12.726-88.031 17.707-12.091-63.341-136.131-166.339-251.777-173.859l18.948-193.769c0.799-7.432 5.47-13.612 11.93-16.537zM736.87 30.171l-22.184 110.92c-1.398 6.877-6.1 12.412-12.34 14.95l-158.615 59.032c-27.958 11.367-49.351 33.928-58.901 61.97l-17.92 53.812-45.425-19.542c-9.542-4.216-20.67-6.67-32.371-6.67s-22.828 2.454-32.896 6.876l-44.891 19.336-17.699-53.101c-9.763-28.762-31.158-51.324-58.434-62.443l-159.158-59.229c-6.377-2.587-11.079-8.122-12.454-14.868l-22.214-111.043c-0.261-1.226-0.41-2.635-0.41-4.079 0-4.366 1.366-8.412 3.694-11.736 2.998-4.337 7.667-7.429 13.077-8.347 98.678-16.959 213.177-27.456 329.83-29.032 119.766 1.575 234.263 12.070 345.954 30.835-7.603-0.888-2.934 2.204 0.064 6.54 2.332 3.326 3.701 7.377 3.701 11.747 0 1.442-0.149 2.849-0.432 4.206z" />
<glyph unicode="&#xee26;" glyph-name="location-area" d="M491.52 552.448v-350.208c0-11.311 9.169-20.48 20.48-20.48s20.48 9.169 20.48 20.48v350.208c92.601 10.654 163.84 88.597 163.84 183.179 0 101.797-82.523 184.32-184.32 184.32s-184.32-82.523-184.32-184.32c0-94.582 71.239-172.525 162.987-183.099zM512 878.080c79.176 0 143.36-64.184 143.36-143.36s-64.184-143.36-143.36-143.36c-79.176 0-143.36 64.184-143.36 143.36 0.091 79.139 64.221 143.269 143.351 143.36zM983.040 181.76c0-106.418-242.68-163.84-471.040-163.84s-471.040 57.422-471.040 163.84c0 93.741 186.561 143.819 346.321 158.22 0.552 0.053 1.194 0.083 1.843 0.083 11.313 0 20.483-9.171 20.483-20.483 0-10.664-8.149-19.424-18.559-20.394-193.535-17.447-309.128-73.406-309.128-117.426 0-51.319 163.598-122.88 430.080-122.88s430.080 71.561 430.080 122.88c0 44.020-115.601 99.979-309.039 117.42-10.491 0.976-18.64 9.736-18.64 20.4 0 11.313 9.171 20.483 20.483 20.483 0.649 0 1.291-0.030 1.924-0.089 159.663-14.395 346.232-64.473 346.232-158.214z" />
</font>
</defs>
</svg>
