<?xml version="1.0" encoding="UTF-8"?>
<svg width="122px" height="122px" viewBox="0 0 122 122" version="1.1" xmlns="http://www.w3.org/2000/svg" xmlns:xlink="http://www.w3.org/1999/xlink">
    <!-- Generator: Sketch 48.2 (47327) - http://www.bohemiancoding.com/sketch -->
    <title>faq-icon</title>
    <desc>Created with Sketch.</desc>
    <defs></defs>
    <g id="Desktop-HD" stroke="none" stroke-width="1" fill="none" fill-rule="evenodd" transform="translate(-947.000000, -511.000000)">
        <g id="FAQ" transform="translate(878.000000, 492.000000)">
            <g id="faq-icon" transform="translate(70.000000, 20.000000)">
                <circle id="Oval-3-Copy" stroke="#E2E1DA" fill="#FFFFFF" cx="60" cy="60" r="60"></circle>
                <path d="M75.2235524,37.5720546 C75.2235524,31.1318193 69.7600987,25.8930818 63.0436089,25.8930818 C56.3271191,25.8930818 50.8636654,31.1318193 50.8636654,37.5720546 C50.8636654,41.4637739 52.9192813,45.114049 56.2770999,47.2720579 L56.2770999,49.3172475 C54.7341802,49.6183713 53.5703827,50.9288732 53.5703827,52.4952623 C53.5703827,53.6501608 54.2064215,54.6570863 55.1550798,55.2334455 C55.011559,55.5928866 54.9237413,55.9795787 54.9237413,56.3883441 C54.9237413,58.177919 56.4407989,59.6325789 58.3071379,59.6325789 L67.7803641,59.6325789 C69.6467031,59.6325789 71.1637607,58.177919 71.1637607,56.3883441 C71.1637607,55.9795787 71.0756588,55.5928866 70.9324222,55.2334455 C71.8810805,54.6573588 72.5171193,53.6501608 72.5171193,52.4952623 C72.5171193,50.9277832 71.3533218,49.6183713 69.810402,49.3172475 L69.810402,47.2720579 C73.1679365,45.114049 75.2235524,41.4637739 75.2235524,37.5720546 L75.2235524,37.5720546 L75.2235524,37.5720546 Z M67.7803641,57.0369185 L58.3068537,57.0369185 C57.9345522,57.0369185 57.6301744,56.74506 57.6301744,56.3880716 C57.6301744,56.0310831 57.9345522,55.7392246 58.3068537,55.7392246 L67.7800799,55.7392246 C68.1523814,55.7392246 68.4567592,56.0310831 68.4567592,56.3880716 C68.4567592,56.74506 68.1523814,57.0369185 67.7803641,57.0369185 L67.7803641,57.0369185 L67.7803641,57.0369185 Z M69.1337227,53.1441092 L67.7803641,53.1441092 L58.3068537,53.1441092 L56.9534951,53.1441092 C56.5811936,53.1441092 56.2768157,52.8522507 56.2768157,52.4952623 C56.2768157,52.1382738 56.5814778,51.8464153 56.9537793,51.8464153 L69.1337227,51.8464153 C69.5060242,51.8464153 69.810402,52.1382738 69.810402,52.4952623 C69.810402,52.8522507 69.5060242,53.1441092 69.1337227,53.1441092 L69.1337227,53.1441092 L69.1337227,53.1441092 Z M61.6902503,37.5720546 C61.6902503,36.8556251 62.2964481,36.2743607 63.0436089,36.2743607 C63.7907697,36.2743607 64.3969675,36.8556251 64.3969675,37.5720546 C64.3969675,38.2884841 63.7907697,38.8697486 63.0436089,38.8697486 C62.2967323,38.8697486 61.6902503,38.2882116 61.6902503,37.5720546 L61.6902503,37.5720546 L61.6902503,37.5720546 Z M67.7789431,45.4307059 L67.1036848,45.8056801 L67.1036848,49.2510275 L64.3969675,49.2510275 L64.3969675,41.2261449 C65.9683073,40.6890271 67.1036848,39.2613458 67.1036848,37.5717821 C67.1036848,35.4254912 65.2819652,33.6787003 63.0436089,33.6787003 C60.8052526,33.6787003 58.983533,35.4254912 58.983533,37.5717821 C58.983533,39.2613458 60.1189105,40.6887546 61.6902503,41.2261449 L61.6902503,49.2510275 L58.983533,49.2510275 L58.983533,45.8056801 L58.3082747,45.4307059 C55.3864183,43.8073622 53.5703827,40.7953062 53.5703827,37.5720546 C53.5703827,32.5644058 57.8211565,28.4884696 63.0436089,28.4884696 C68.2660613,28.4884696 72.5168351,32.5644058 72.5168351,37.5720546 C72.5168351,40.7955787 70.7007995,43.8073622 67.7789431,45.4307059 L67.7789431,45.4307059 Z M74.4522346,82.8605372 C73.836374,81.3630932 72.3531361,80.3948642 70.6752215,80.3948642 L69.810402,80.3948642 L69.810402,65.4716565 C69.810402,62.9672871 67.6857256,60.9297278 65.0736468,60.9297278 C62.4615681,60.9297278 60.3368916,62.9670146 60.3368916,65.4716565 L60.3368916,71.6421067 C59.8565943,71.4461718 59.3475927,71.3112792 58.8076134,71.3112792 L57.5233153,71.3112792 C55.3443568,71.3112792 53.5700985,73.0125609 53.5700985,75.1018971 L53.5700985,75.204361 L52.1098808,75.204361 C49.9309223,75.204361 48.156664,76.9056426 48.156664,78.9949789 L48.156664,79.0974428 L48.0500891,79.0974428 C45.8711306,79.0974428 44.0968723,80.7987244 44.0968723,82.8880607 L44.0968723,82.9905246 L44.0968723,83.255132 L44.0968723,85.8595127 C44.0968723,87.6450001 44.4717316,89.380073 45.2120716,91.0189498 L47.2637087,95.559516 C47.8565492,96.8713804 48.1569482,98.2587302 48.1569482,99.6875016 L48.1569482,99.8600006 L50.8636654,99.8600006 L50.8636654,99.6861391 C50.8636654,97.9006517 50.4888061,96.1655788 49.7484661,94.526702 L47.696829,89.9861358 C47.3449898,89.207574 47.1082515,88.399036 46.9647307,87.5749649 L52.0533251,92.4542614 C52.8451052,93.213475 53.8844233,93.5922643 54.9237413,93.5922643 C55.9630594,93.5922643 57.0023774,93.213475 57.7941576,92.4542614 L58.0269171,92.2310755 C58.6683556,91.6160198 59.0363941,90.8439982 59.1583158,90.044453 C59.2123137,90.0471781 59.2651748,90.0586236 59.319457,90.0586236 C60.0489974,90.0586236 60.7825167,89.8665038 61.429355,89.4732715 L61.5117729,89.4239471 C61.7053128,89.2994099 61.8798114,89.1566146 62.0449314,89.0048263 C62.6553922,89.5315887 63.4008478,89.9275461 64.2415103,90.1286587 L66.0564092,90.5646751 L67.1755873,93.7816589 L69.7416257,92.960313 L68.1540866,88.3911332 L64.8980115,87.6098462 C63.8058323,87.3490539 63.0438931,86.4146162 63.0438931,85.336293 C63.0438931,84.0424142 64.1414721,82.9899795 65.4908519,82.9899795 L67.103969,82.9899795 L69.8106862,82.9899795 L70.6755057,82.9899795 C71.2262846,82.9899795 71.7324441,83.320807 71.9342259,83.8113255 L73.5894045,87.8392999 C73.7761237,88.2960271 73.8707621,88.7761902 73.8707621,89.2653462 L73.8707621,89.5509369 C73.8707621,90.1518221 73.7232625,90.7551598 73.4430417,91.2922776 L71.8785227,94.2926157 C71.4115827,95.1867219 71.1640449,96.1911948 71.1640449,97.19158 L71.1640449,99.8594556 L73.8707621,99.8594556 L73.8707621,97.19158 C73.8707621,96.5906948 74.0182617,95.9873571 74.2984826,95.4502393 L75.8630015,92.4499012 C76.3299415,91.555795 76.5774794,90.5513221 76.5774794,89.5509369 L76.5774794,89.2653462 C76.5774794,88.4491779 76.4191802,87.6496327 76.1065606,86.8879665 L74.4522346,82.8605372 L74.4522346,82.8605372 Z M56.1131168,90.3962638 L55.8803573,90.6194497 C55.3511776,91.1268638 54.4960209,91.1268638 53.9668412,90.6194497 L47.1690703,84.1012764 C46.9334688,83.8753654 46.8035895,83.5745141 46.8035895,83.255132 L46.8035895,82.9905246 L46.8035895,82.8880607 C46.8035895,82.2288584 47.3626102,81.6928306 48.0500891,81.6928306 L48.4331902,81.6928306 C48.765988,81.6928306 49.0800286,81.8173678 49.3142091,82.0432789 L56.11198,88.5614521 C56.6411597,89.0675037 56.6411597,89.8902122 56.1131168,90.3962638 L56.1131168,90.3962638 Z M60.5079798,86.5835725 C60.4505715,86.7925879 60.3206923,87.0547428 60.0310928,87.2493151 L60.0040939,87.2662108 C59.5101549,87.5801426 58.851096,87.5180103 58.4327541,87.1168751 L58.0254961,86.7263679 L51.2277252,80.2081947 C50.9935447,79.9822836 50.8636654,79.6814323 50.8636654,79.3620503 L50.8636654,78.9947064 C50.8636654,78.3355041 51.4226861,77.7994763 52.110165,77.7994763 L53.6232438,77.7994763 C54.0128815,77.7994763 54.382341,77.977153 54.6165215,78.2744618 L57.756359,82.286903 L60.3141557,85.5504861 C60.3249553,85.5635666 60.3343338,85.5856399 60.3454176,85.5856399 L60.3482596,85.5856399 L60.3619012,85.6090758 C60.3809426,85.9374507 60.4349405,86.2592853 60.5187794,86.569402 C60.5148006,86.5745797 60.5133796,86.5797574 60.5079798,86.5835725 L60.5079798,86.5835725 Z M63.0424721,80.773926 C63.0438931,81.133367 61.8556544,81.6925581 61.2980548,82.9902521 L61.294076,82.9902521 L58.391261,79.0257726 L56.7861015,76.8484155 L56.5274798,76.4227544 C56.3623598,76.2112865 56.2770999,75.9322359 56.2770999,75.6700811 L56.2770999,75.1018971 C56.2770999,74.4426948 56.8361206,73.9066671 57.5235995,73.9066671 L58.8078976,73.9066671 C59.259775,73.9066671 59.4399576,74.1429335 59.6590755,74.5217228 L63.0424721,80.7725634 L63.0424721,80.773926 L63.0424721,80.773926 Z M67.1036848,80.3951367 L66.3960277,80.3951367 L63.0438931,74.6100161 L63.0438931,65.4719291 C63.0436089,64.3987836 63.9544687,63.5253882 65.0736468,63.5253882 C66.192825,63.5253882 67.1036848,64.3987836 67.1036848,65.4719291 L67.1036848,80.3951367 L67.1036848,80.3951367 Z M61.6902503,22 L64.3969675,22 L64.3969675,24.5953879 L61.6902503,24.5953879 L61.6902503,22 L61.6902503,22 Z M56.096042,23.4378058 L57.44913,25.6856712 L55.1048421,26.9831056 L53.7517542,24.7352402 L56.096042,23.4378058 L56.096042,23.4378058 Z M49.6551178,28.6623547 L51.9994056,29.9597891 L50.6463177,32.2076545 L48.3020299,30.9102201 L49.6551178,28.6623547 L49.6551178,28.6623547 Z M46.8035895,36.2743607 L49.5103068,36.2743607 L49.5103068,38.8697486 L46.8035895,38.8697486 L46.8035895,36.2743607 L46.8035895,36.2743607 Z M49.654769,46.4827419 L48.3016811,44.2348765 L50.6459689,42.9374421 L51.9990568,45.1853075 L49.654769,46.4827419 L49.654769,46.4827419 Z M76.4296103,46.4802974 L74.0853225,45.182863 L75.4384105,42.9349976 L77.7826983,44.232432 L76.4296103,46.4802974 L76.4296103,46.4802974 Z M76.576911,36.2743607 L79.2836282,36.2743607 L79.2836282,38.8697486 L76.576911,38.8697486 L76.576911,36.2743607 L76.576911,36.2743607 Z M76.4321489,28.6646258 L77.7852369,30.9124912 L75.440949,32.2099256 L74.0878611,29.9620602 L76.4321489,28.6646258 L76.4321489,28.6646258 Z M69.9899716,23.436601 L72.3342595,24.7340354 L70.9811715,26.9819008 L68.6368837,25.6844664 L69.9899716,23.436601 L69.9899716,23.436601 Z M87.4034958,46.7858911 L90.1102131,46.7858911 L90.1102131,44.1907757 L92.8169303,44.1907757 L92.8169303,41.5953879 L90.1102131,41.5953879 L90.1102131,39 L87.4034958,39 L87.4034958,41.5953879 L84.6970628,41.5953879 L84.6970628,44.1907757 L87.4034958,44.1907757 L87.4034958,46.7858911 L87.4034958,46.7858911 Z M40.0370806,32.3812789 L37.3303633,32.3812789 L37.3303633,29.7858911 L34.6236461,29.7858911 L34.6236461,32.3812789 L31.9169288,32.3812789 L31.9169288,34.9766668 L34.6236461,34.9766668 L34.6236461,37.5720546 L37.3303633,37.5720546 L37.3303633,34.9766668 L40.0370806,34.9766668 L40.0370806,32.3812789 L40.0370806,32.3812789 Z M44.0968723,63.5253882 L44.0968723,60.9300003 L46.8035895,60.9300003 L46.8035895,58.3346124 L44.0968723,58.3346124 L44.0968723,55.7394971 L41.3904392,55.7394971 L41.3904392,58.3346124 L38.683722,58.3346124 L38.683722,60.9300003 L41.3904392,60.9300003 L41.3904392,63.5253882 L44.0968723,63.5253882 L44.0968723,63.5253882 Z" id="idea" fill="#0090FE"></path>
            </g>
        </g>
    </g>
</svg>