<?xml version="1.0" encoding="UTF-8"?>
<svg width="122px" height="122px" viewBox="0 0 122 122" version="1.1" xmlns="http://www.w3.org/2000/svg" xmlns:xlink="http://www.w3.org/1999/xlink">
    <!-- Generator: Sketch 48.2 (47327) - http://www.bohemiancoding.com/sketch -->
    <title>locations-icon</title>
    <desc>Created with Sketch.</desc>
    <defs></defs>
    <g id="Desktop-HD" stroke="none" stroke-width="1" fill="none" fill-rule="evenodd" transform="translate(-667.000000, -511.000000)">
        <g id="Locations" transform="translate(598.000000, 492.000000)">
            <g id="locations-icon" transform="translate(70.000000, 20.000000)">
                <circle id="Oval-3-Copy" stroke="#E2E1DA" fill="#FFFFFF" cx="60" cy="60" r="60"></circle>
                <g id="5I" transform="translate(31.000000, 36.000000)" fill="#0090FE">
                    <path d="M52.6789149,37.0434146 L39.8102553,45.2904878 L39.8102553,13.8197561 L52.6789149,5.6597561 L52.6789149,37.0434146 Z M4.38051064,14.0934146 L17.6518085,5.6597561 L17.6518085,37.5285366 L4.38051064,45.414878 L4.38051064,14.0934146 Z M21.2901064,5.39853659 L36.1719574,13.4341463 L36.1719574,45.5517073 L21.2901064,37.4787805 L21.2901064,5.39853659 Z M55.383383,0.684146341 C54.8073191,0.348292683 54.1014894,0.360731707 53.5411915,0.721463415 L38.3209787,10.3865854 L20.3186809,0.659268293 C20.3017021,0.646829268 20.2835106,0.646829268 20.2665319,0.634390244 C20.1561702,0.584634146 20.0409574,0.534878049 19.9184681,0.51 C19.8990638,0.497560976 19.8808723,0.497560976 19.8602553,0.485121951 C19.7353404,0.460243902 19.6055745,0.447804878 19.4709574,0.447804878 C19.4588298,0.447804878 19.4467021,0.447804878 19.4345745,0.447804878 C19.3981915,0.447804878 19.3618085,0.460243902 19.3254255,0.460243902 C19.2162766,0.472682927 19.110766,0.485121951 19.0076809,0.51 C18.965234,0.522439024 18.924,0.534878049 18.8815532,0.547317073 C18.7760426,0.584634146 18.6765957,0.634390244 18.582,0.696585366 C18.5589574,0.70902439 18.5347021,0.70902439 18.5128723,0.721463415 L1.6032766,11.4687805 C1.06844681,11.8170732 0.742212766,12.4141463 0.742212766,13.0609756 L0.742212766,48.6490244 C0.742212766,49.3207317 1.08906383,49.9426829 1.653,50.2660976 C2.21693617,50.6019512 2.90942553,50.6019512 3.4733617,50.2660976 L19.5109787,40.7378049 L37.1409574,50.3034146 C37.1591489,50.3158537 37.179766,50.3158537 37.1991702,50.3282927 C37.2877021,50.3656098 37.3810851,50.4029268 37.4768936,50.4402439 C37.5144894,50.4402439 37.5484468,50.465122 37.5860426,50.465122 C37.7170213,50.502439 37.8516383,50.514878 37.9911064,50.514878 C38.1475532,50.514878 38.2955106,50.49 38.4398298,50.4526829 C38.4786383,50.4402439 38.5138085,50.4278049 38.5514043,50.4153659 C38.6738936,50.3780488 38.7891064,50.3282927 38.8970426,50.2660976 C38.915234,50.2536585 38.9370638,50.2536585 38.9552553,50.2412195 L55.461,39.6680488 C55.9934043,39.3197561 56.3172128,38.7226829 56.3172128,38.0758537 L56.3172128,2.31365854 C56.3172128,1.6295122 55.9606596,1.00756098 55.383383,0.684146341 Z"></path>
                </g>
            </g>
        </g>
    </g>
</svg>