<?xml version="1.0" encoding="UTF-8"?>
<svg width="138px" height="128px" viewBox="0 0 138 128" version="1.1" xmlns="http://www.w3.org/2000/svg" xmlns:xlink="http://www.w3.org/1999/xlink">
    <!-- Generator: Sketch 48.2 (47327) - http://www.bohemiancoding.com/sketch -->
    <title>ecommerce</title>
    <desc>Created with Sketch.</desc>
    <defs></defs>
    <g id="Desktop-HD" stroke="none" stroke-width="1" fill="none" fill-rule="evenodd" transform="translate(-659.000000, -264.000000)">
        <path d="M788.096774,375.483871 L788.096774,309.419355 C788.096774,304.865032 784.103677,301.16129 779.193548,301.16129 L748.032258,301.16129 L748.032258,264 L707.967742,264 L707.967742,301.16129 L676.806452,301.16129 C671.896323,301.16129 667.903226,304.865032 667.903226,309.419355 L667.903226,375.483871 L659,375.483871 L659,383.741935 C659,388.296258 662.993097,392 667.903226,392 L788.096774,392 C793.006903,392 797,388.296258 797,383.741935 L797,375.483871 L788.096774,375.483871 Z M712,295 L712,268 L743,268 L743,295 L743,322 L712,322 L712,295 Z M756.285714,326.461538 L756.285714,322.307692 L747.428571,322.307692 L747.428571,314 L774,314 L774,368 L681,368 L681,314 L707.571429,314 L707.571429,322.307692 L698.714286,322.307692 L698.714286,326.461538 L756.285714,326.461538 Z M672,309.117647 C672,306.846765 673.99356,305 676.44,305 L707.52,305 L707.52,309.117647 L676.44,309.117647 L676.44,370.882353 L778.56,370.882353 L778.56,309.117647 L747.48,309.117647 L747.48,305 L778.56,305 C781.00866,305 783,306.846765 783,309.117647 L783,375 L672,375 L672,309.117647 Z M792,384 C792,386.206 790.004948,388 787.551724,388 L667.448276,388 C664.997276,388 663,386.206 663,384 L663,380 L792,380 L792,384 Z M727.5,310 C718.955071,310 712,303.493643 712,295.5 C712,287.506357 718.955071,281 727.5,281 C736.044929,281 743,287.506357 743,295.5 C743,303.493643 736.044929,310 727.5,310 Z M728,285 C721.9346,285 717,289.7103 717,295.5 C717,301.2897 721.9346,306 728,306 C734.0654,306 739,301.2897 739,295.5 C739,289.7103 734.0654,285 728,285 Z M686,344 L686,330 L708,330 L708,344 L686,344 Z M690,334 L690,340 L703,340 L703,334 L690,334 Z M686,363 L686,349 L708,349 L708,363 L686,363 Z M690,353 L690,359 L703,359 L703,353 L690,353 Z M734,330 L734,344 L712,344 L712,330 L734,330 Z M730,340 L730,334 L717,334 L717,340 L730,340 Z M734,349 L734,363 L712,363 L712,349 L734,349 Z M730,359 L730,353 L717,353 L717,359 L730,359 Z M770,330 L770,363 L739,363 L739,330 L770,330 Z M766,359 L766,334 L744,334 L744,359 L766,359 Z M699,264 L703,264 L703,268 L699,268 L699,264 Z M699,272 L703,272 L703,297 L699,297 L699,272 Z M752,268 L756,268 L756,272 L752,272 L752,268 Z M752,276 L756,276 L756,297 L752,297 L752,276 Z" id="ecommerce" fill="#0090FE" fill-rule="nonzero"></path>
    </g>
</svg>